<?xml version="1.0"?>
<VTKFile type="UnstructuredGrid"  version="0.1"  >
<UnstructuredGrid>
<Piece  NumberOfPoints="1089" NumberOfCells="2048">
<Points>
<DataArray  type="Float64"  NumberOfComponents="3"  format="ascii">0 0 0  0.03125 0 0  0.0625 0 0  0.09375 0 0  0.125 0 0  0.15625 0 0  0.1875 0 0  0.21875 0 0  0.25 0 0  0.28125 0 0  0.3125 0 0  0.34375 0 0  0.375 0 0  0.40625 0 0  0.4375 0 0  0.46875 0 0  0.5 0 0  0.53125 0 0  0.5625 0 0  0.59375 0 0  0.625 0 0  0.65625 0 0  0.6875 0 0  0.71875 0 0  0.75 0 0  0.78125 0 0  0.8125 0 0  0.84375 0 0  0.875 0 0  0.90625 0 0  0.9375 0 0  0.96875 0 0  1 0 0  0 0.03125 0  0.03125 0.03125 0  0.0625 0.03125 0  0.09375 0.03125 0  0.125 0.03125 0  0.15625 0.03125 0  0.1875 0.03125 0  0.21875 0.03125 0  0.25 0.03125 0  0.28125 0.03125 0  0.3125 0.03125 0  0.34375 0.03125 0  0.375 0.03125 0  0.40625 0.03125 0  0.4375 0.03125 0  0.46875 0.03125 0  0.5 0.03125 0  0.53125 0.03125 0  0.5625 0.03125 0  0.59375 0.03125 0  0.625 0.03125 0  0.65625 0.03125 0  0.6875 0.03125 0  0.71875 0.03125 0  0.75 0.03125 0  0.78125 0.03125 0  0.8125 0.03125 0  0.84375 0.03125 0  0.875 0.03125 0  0.90625 0.03125 0  0.9375 0.03125 0  0.96875 0.03125 0  1 0.03125 0  0 0.0625 0  0.03125 0.0625 0  0.0625 0.0625 0  0.09375 0.0625 0  0.125 0.0625 0  0.15625 0.0625 0  0.1875 0.0625 0  0.21875 0.0625 0  0.25 0.0625 0  0.28125 0.0625 0  0.3125 0.0625 0  0.34375 0.0625 0  0.375 0.0625 0  0.40625 0.0625 0  0.4375 0.0625 0  0.46875 0.0625 0  0.5 0.0625 0  0.53125 0.0625 0  0.5625 0.0625 0  0.59375 0.0625 0  0.625 0.0625 0  0.65625 0.0625 0  0.6875 0.0625 0  0.71875 0.0625 0  0.75 0.0625 0  0.78125 0.0625 0  0.8125 0.0625 0  0.84375 0.0625 0  0.875 0.0625 0  0.90625 0.0625 0  0.9375 0.0625 0  0.96875 0.0625 0  1 0.0625 0  0 0.09375 0  0.03125 0.09375 0  0.0625 0.09375 0  0.09375 0.09375 0  0.125 0.09375 0  0.15625 0.09375 0  0.1875 0.09375 0  0.21875 0.09375 0  0.25 0.09375 0  0.28125 0.09375 0  0.3125 0.09375 0  0.34375 0.09375 0  0.375 0.09375 0  0.40625 0.09375 0  0.4375 0.09375 0  0.46875 0.09375 0  0.5 0.09375 0  0.53125 0.09375 0  0.5625 0.09375 0  0.59375 0.09375 0  0.625 0.09375 0  0.65625 0.09375 0  0.6875 0.09375 0  0.71875 0.09375 0  0.75 0.09375 0  0.78125 0.09375 0  0.8125 0.09375 0  0.84375 0.09375 0  0.875 0.09375 0  0.90625 0.09375 0  0.9375 0.09375 0  0.96875 0.09375 0  1 0.09375 0  0 0.125 0  0.03125 0.125 0  0.0625 0.125 0  0.09375 0.125 0  0.125 0.125 0  0.15625 0.125 0  0.1875 0.125 0  0.21875 0.125 0  0.25 0.125 0  0.28125 0.125 0  0.3125 0.125 0  0.34375 0.125 0  0.375 0.125 0  0.40625 0.125 0  0.4375 0.125 0  0.46875 0.125 0  0.5 0.125 0  0.53125 0.125 0  0.5625 0.125 0  0.59375 0.125 0  0.625 0.125 0  0.65625 0.125 0  0.6875 0.125 0  0.71875 0.125 0  0.75 0.125 0  0.78125 0.125 0  0.8125 0.125 0  0.84375 0.125 0  0.875 0.125 0  0.90625 0.125 0  0.9375 0.125 0  0.96875 0.125 0  1 0.125 0  0 0.15625 0  0.03125 0.15625 0  0.0625 0.15625 0  0.09375 0.15625 0  0.125 0.15625 0  0.15625 0.15625 0  0.1875 0.15625 0  0.21875 0.15625 0  0.25 0.15625 0  0.28125 0.15625 0  0.3125 0.15625 0  0.34375 0.15625 0  0.375 0.15625 0  0.40625 0.15625 0  0.4375 0.15625 0  0.46875 0.15625 0  0.5 0.15625 0  0.53125 0.15625 0  0.5625 0.15625 0  0.59375 0.15625 0  0.625 0.15625 0  0.65625 0.15625 0  0.6875 0.15625 0  0.71875 0.15625 0  0.75 0.15625 0  0.78125 0.15625 0  0.8125 0.15625 0  0.84375 0.15625 0  0.875 0.15625 0  0.90625 0.15625 0  0.9375 0.15625 0  0.96875 0.15625 0  1 0.15625 0  0 0.1875 0  0.03125 0.1875 0  0.0625 0.1875 0  0.09375 0.1875 0  0.125 0.1875 0  0.15625 0.1875 0  0.1875 0.1875 0  0.21875 0.1875 0  0.25 0.1875 0  0.28125 0.1875 0  0.3125 0.1875 0  0.34375 0.1875 0  0.375 0.1875 0  0.40625 0.1875 0  0.4375 0.1875 0  0.46875 0.1875 0  0.5 0.1875 0  0.53125 0.1875 0  0.5625 0.1875 0  0.59375 0.1875 0  0.625 0.1875 0  0.65625 0.1875 0  0.6875 0.1875 0  0.71875 0.1875 0  0.75 0.1875 0  0.78125 0.1875 0  0.8125 0.1875 0  0.84375 0.1875 0  0.875 0.1875 0  0.90625 0.1875 0  0.9375 0.1875 0  0.96875 0.1875 0  1 0.1875 0  0 0.21875 0  0.03125 0.21875 0  0.0625 0.21875 0  0.09375 0.21875 0  0.125 0.21875 0  0.15625 0.21875 0  0.1875 0.21875 0  0.21875 0.21875 0  0.25 0.21875 0  0.28125 0.21875 0  0.3125 0.21875 0  0.34375 0.21875 0  0.375 0.21875 0  0.40625 0.21875 0  0.4375 0.21875 0  0.46875 0.21875 0  0.5 0.21875 0  0.53125 0.21875 0  0.5625 0.21875 0  0.59375 0.21875 0  0.625 0.21875 0  0.65625 0.21875 0  0.6875 0.21875 0  0.71875 0.21875 0  0.75 0.21875 0  0.78125 0.21875 0  0.8125 0.21875 0  0.84375 0.21875 0  0.875 0.21875 0  0.90625 0.21875 0  0.9375 0.21875 0  0.96875 0.21875 0  1 0.21875 0  0 0.25 0  0.03125 0.25 0  0.0625 0.25 0  0.09375 0.25 0  0.125 0.25 0  0.15625 0.25 0  0.1875 0.25 0  0.21875 0.25 0  0.25 0.25 0  0.28125 0.25 0  0.3125 0.25 0  0.34375 0.25 0  0.375 0.25 0  0.40625 0.25 0  0.4375 0.25 0  0.46875 0.25 0  0.5 0.25 0  0.53125 0.25 0  0.5625 0.25 0  0.59375 0.25 0  0.625 0.25 0  0.65625 0.25 0  0.6875 0.25 0  0.71875 0.25 0  0.75 0.25 0  0.78125 0.25 0  0.8125 0.25 0  0.84375 0.25 0  0.875 0.25 0  0.90625 0.25 0  0.9375 0.25 0  0.96875 0.25 0  1 0.25 0  0 0.28125 0  0.03125 0.28125 0  0.0625 0.28125 0  0.09375 0.28125 0  0.125 0.28125 0  0.15625 0.28125 0  0.1875 0.28125 0  0.21875 0.28125 0  0.25 0.28125 0  0.28125 0.28125 0  0.3125 0.28125 0  0.34375 0.28125 0  0.375 0.28125 0  0.40625 0.28125 0  0.4375 0.28125 0  0.46875 0.28125 0  0.5 0.28125 0  0.53125 0.28125 0  0.5625 0.28125 0  0.59375 0.28125 0  0.625 0.28125 0  0.65625 0.28125 0  0.6875 0.28125 0  0.71875 0.28125 0  0.75 0.28125 0  0.78125 0.28125 0  0.8125 0.28125 0  0.84375 0.28125 0  0.875 0.28125 0  0.90625 0.28125 0  0.9375 0.28125 0  0.96875 0.28125 0  1 0.28125 0  0 0.3125 0  0.03125 0.3125 0  0.0625 0.3125 0  0.09375 0.3125 0  0.125 0.3125 0  0.15625 0.3125 0  0.1875 0.3125 0  0.21875 0.3125 0  0.25 0.3125 0  0.28125 0.3125 0  0.3125 0.3125 0  0.34375 0.3125 0  0.375 0.3125 0  0.40625 0.3125 0  0.4375 0.3125 0  0.46875 0.3125 0  0.5 0.3125 0  0.53125 0.3125 0  0.5625 0.3125 0  0.59375 0.3125 0  0.625 0.3125 0  0.65625 0.3125 0  0.6875 0.3125 0  0.71875 0.3125 0  0.75 0.3125 0  0.78125 0.3125 0  0.8125 0.3125 0  0.84375 0.3125 0  0.875 0.3125 0  0.90625 0.3125 0  0.9375 0.3125 0  0.96875 0.3125 0  1 0.3125 0  0 0.34375 0  0.03125 0.34375 0  0.0625 0.34375 0  0.09375 0.34375 0  0.125 0.34375 0  0.15625 0.34375 0  0.1875 0.34375 0  0.21875 0.34375 0  0.25 0.34375 0  0.28125 0.34375 0  0.3125 0.34375 0  0.34375 0.34375 0  0.375 0.34375 0  0.40625 0.34375 0  0.4375 0.34375 0  0.46875 0.34375 0  0.5 0.34375 0  0.53125 0.34375 0  0.5625 0.34375 0  0.59375 0.34375 0  0.625 0.34375 0  0.65625 0.34375 0  0.6875 0.34375 0  0.71875 0.34375 0  0.75 0.34375 0  0.78125 0.34375 0  0.8125 0.34375 0  0.84375 0.34375 0  0.875 0.34375 0  0.90625 0.34375 0  0.9375 0.34375 0  0.96875 0.34375 0  1 0.34375 0  0 0.375 0  0.03125 0.375 0  0.0625 0.375 0  0.09375 0.375 0  0.125 0.375 0  0.15625 0.375 0  0.1875 0.375 0  0.21875 0.375 0  0.25 0.375 0  0.28125 0.375 0  0.3125 0.375 0  0.34375 0.375 0  0.375 0.375 0  0.40625 0.375 0  0.4375 0.375 0  0.46875 0.375 0  0.5 0.375 0  0.53125 0.375 0  0.5625 0.375 0  0.59375 0.375 0  0.625 0.375 0  0.65625 0.375 0  0.6875 0.375 0  0.71875 0.375 0  0.75 0.375 0  0.78125 0.375 0  0.8125 0.375 0  0.84375 0.375 0  0.875 0.375 0  0.90625 0.375 0  0.9375 0.375 0  0.96875 0.375 0  1 0.375 0  0 0.40625 0  0.03125 0.40625 0  0.0625 0.40625 0  0.09375 0.40625 0  0.125 0.40625 0  0.15625 0.40625 0  0.1875 0.40625 0  0.21875 0.40625 0  0.25 0.40625 0  0.28125 0.40625 0  0.3125 0.40625 0  0.34375 0.40625 0  0.375 0.40625 0  0.40625 0.40625 0  0.4375 0.40625 0  0.46875 0.40625 0  0.5 0.40625 0  0.53125 0.40625 0  0.5625 0.40625 0  0.59375 0.40625 0  0.625 0.40625 0  0.65625 0.40625 0  0.6875 0.40625 0  0.71875 0.40625 0  0.75 0.40625 0  0.78125 0.40625 0  0.8125 0.40625 0  0.84375 0.40625 0  0.875 0.40625 0  0.90625 0.40625 0  0.9375 0.40625 0  0.96875 0.40625 0  1 0.40625 0  0 0.4375 0  0.03125 0.4375 0  0.0625 0.4375 0  0.09375 0.4375 0  0.125 0.4375 0  0.15625 0.4375 0  0.1875 0.4375 0  0.21875 0.4375 0  0.25 0.4375 0  0.28125 0.4375 0  0.3125 0.4375 0  0.34375 0.4375 0  0.375 0.4375 0  0.40625 0.4375 0  0.4375 0.4375 0  0.46875 0.4375 0  0.5 0.4375 0  0.53125 0.4375 0  0.5625 0.4375 0  0.59375 0.4375 0  0.625 0.4375 0  0.65625 0.4375 0  0.6875 0.4375 0  0.71875 0.4375 0  0.75 0.4375 0  0.78125 0.4375 0  0.8125 0.4375 0  0.84375 0.4375 0  0.875 0.4375 0  0.90625 0.4375 0  0.9375 0.4375 0  0.96875 0.4375 0  1 0.4375 0  0 0.46875 0  0.03125 0.46875 0  0.0625 0.46875 0  0.09375 0.46875 0  0.125 0.46875 0  0.15625 0.46875 0  0.1875 0.46875 0  0.21875 0.46875 0  0.25 0.46875 0  0.28125 0.46875 0  0.3125 0.46875 0  0.34375 0.46875 0  0.375 0.46875 0  0.40625 0.46875 0  0.4375 0.46875 0  0.46875 0.46875 0  0.5 0.46875 0  0.53125 0.46875 0  0.5625 0.46875 0  0.59375 0.46875 0  0.625 0.46875 0  0.65625 0.46875 0  0.6875 0.46875 0  0.71875 0.46875 0  0.75 0.46875 0  0.78125 0.46875 0  0.8125 0.46875 0  0.84375 0.46875 0  0.875 0.46875 0  0.90625 0.46875 0  0.9375 0.46875 0  0.96875 0.46875 0  1 0.46875 0  0 0.5 0  0.03125 0.5 0  0.0625 0.5 0  0.09375 0.5 0  0.125 0.5 0  0.15625 0.5 0  0.1875 0.5 0  0.21875 0.5 0  0.25 0.5 0  0.28125 0.5 0  0.3125 0.5 0  0.34375 0.5 0  0.375 0.5 0  0.40625 0.5 0  0.4375 0.5 0  0.46875 0.5 0  0.5 0.5 0  0.53125 0.5 0  0.5625 0.5 0  0.59375 0.5 0  0.625 0.5 0  0.65625 0.5 0  0.6875 0.5 0  0.71875 0.5 0  0.75 0.5 0  0.78125 0.5 0  0.8125 0.5 0  0.84375 0.5 0  0.875 0.5 0  0.90625 0.5 0  0.9375 0.5 0  0.96875 0.5 0  1 0.5 0  0 0.53125 0  0.03125 0.53125 0  0.0625 0.53125 0  0.09375 0.53125 0  0.125 0.53125 0  0.15625 0.53125 0  0.1875 0.53125 0  0.21875 0.53125 0  0.25 0.53125 0  0.28125 0.53125 0  0.3125 0.53125 0  0.34375 0.53125 0  0.375 0.53125 0  0.40625 0.53125 0  0.4375 0.53125 0  0.46875 0.53125 0  0.5 0.53125 0  0.53125 0.53125 0  0.5625 0.53125 0  0.59375 0.53125 0  0.625 0.53125 0  0.65625 0.53125 0  0.6875 0.53125 0  0.71875 0.53125 0  0.75 0.53125 0  0.78125 0.53125 0  0.8125 0.53125 0  0.84375 0.53125 0  0.875 0.53125 0  0.90625 0.53125 0  0.9375 0.53125 0  0.96875 0.53125 0  1 0.53125 0  0 0.5625 0  0.03125 0.5625 0  0.0625 0.5625 0  0.09375 0.5625 0  0.125 0.5625 0  0.15625 0.5625 0  0.1875 0.5625 0  0.21875 0.5625 0  0.25 0.5625 0  0.28125 0.5625 0  0.3125 0.5625 0  0.34375 0.5625 0  0.375 0.5625 0  0.40625 0.5625 0  0.4375 0.5625 0  0.46875 0.5625 0  0.5 0.5625 0  0.53125 0.5625 0  0.5625 0.5625 0  0.59375 0.5625 0  0.625 0.5625 0  0.65625 0.5625 0  0.6875 0.5625 0  0.71875 0.5625 0  0.75 0.5625 0  0.78125 0.5625 0  0.8125 0.5625 0  0.84375 0.5625 0  0.875 0.5625 0  0.90625 0.5625 0  0.9375 0.5625 0  0.96875 0.5625 0  1 0.5625 0  0 0.59375 0  0.03125 0.59375 0  0.0625 0.59375 0  0.09375 0.59375 0  0.125 0.59375 0  0.15625 0.59375 0  0.1875 0.59375 0  0.21875 0.59375 0  0.25 0.59375 0  0.28125 0.59375 0  0.3125 0.59375 0  0.34375 0.59375 0  0.375 0.59375 0  0.40625 0.59375 0  0.4375 0.59375 0  0.46875 0.59375 0  0.5 0.59375 0  0.53125 0.59375 0  0.5625 0.59375 0  0.59375 0.59375 0  0.625 0.59375 0  0.65625 0.59375 0  0.6875 0.59375 0  0.71875 0.59375 0  0.75 0.59375 0  0.78125 0.59375 0  0.8125 0.59375 0  0.84375 0.59375 0  0.875 0.59375 0  0.90625 0.59375 0  0.9375 0.59375 0  0.96875 0.59375 0  1 0.59375 0  0 0.625 0  0.03125 0.625 0  0.0625 0.625 0  0.09375 0.625 0  0.125 0.625 0  0.15625 0.625 0  0.1875 0.625 0  0.21875 0.625 0  0.25 0.625 0  0.28125 0.625 0  0.3125 0.625 0  0.34375 0.625 0  0.375 0.625 0  0.40625 0.625 0  0.4375 0.625 0  0.46875 0.625 0  0.5 0.625 0  0.53125 0.625 0  0.5625 0.625 0  0.59375 0.625 0  0.625 0.625 0  0.65625 0.625 0  0.6875 0.625 0  0.71875 0.625 0  0.75 0.625 0  0.78125 0.625 0  0.8125 0.625 0  0.84375 0.625 0  0.875 0.625 0  0.90625 0.625 0  0.9375 0.625 0  0.96875 0.625 0  1 0.625 0  0 0.65625 0  0.03125 0.65625 0  0.0625 0.65625 0  0.09375 0.65625 0  0.125 0.65625 0  0.15625 0.65625 0  0.1875 0.65625 0  0.21875 0.65625 0  0.25 0.65625 0  0.28125 0.65625 0  0.3125 0.65625 0  0.34375 0.65625 0  0.375 0.65625 0  0.40625 0.65625 0  0.4375 0.65625 0  0.46875 0.65625 0  0.5 0.65625 0  0.53125 0.65625 0  0.5625 0.65625 0  0.59375 0.65625 0  0.625 0.65625 0  0.65625 0.65625 0  0.6875 0.65625 0  0.71875 0.65625 0  0.75 0.65625 0  0.78125 0.65625 0  0.8125 0.65625 0  0.84375 0.65625 0  0.875 0.65625 0  0.90625 0.65625 0  0.9375 0.65625 0  0.96875 0.65625 0  1 0.65625 0  0 0.6875 0  0.03125 0.6875 0  0.0625 0.6875 0  0.09375 0.6875 0  0.125 0.6875 0  0.15625 0.6875 0  0.1875 0.6875 0  0.21875 0.6875 0  0.25 0.6875 0  0.28125 0.6875 0  0.3125 0.6875 0  0.34375 0.6875 0  0.375 0.6875 0  0.40625 0.6875 0  0.4375 0.6875 0  0.46875 0.6875 0  0.5 0.6875 0  0.53125 0.6875 0  0.5625 0.6875 0  0.59375 0.6875 0  0.625 0.6875 0  0.65625 0.6875 0  0.6875 0.6875 0  0.71875 0.6875 0  0.75 0.6875 0  0.78125 0.6875 0  0.8125 0.6875 0  0.84375 0.6875 0  0.875 0.6875 0  0.90625 0.6875 0  0.9375 0.6875 0  0.96875 0.6875 0  1 0.6875 0  0 0.71875 0  0.03125 0.71875 0  0.0625 0.71875 0  0.09375 0.71875 0  0.125 0.71875 0  0.15625 0.71875 0  0.1875 0.71875 0  0.21875 0.71875 0  0.25 0.71875 0  0.28125 0.71875 0  0.3125 0.71875 0  0.34375 0.71875 0  0.375 0.71875 0  0.40625 0.71875 0  0.4375 0.71875 0  0.46875 0.71875 0  0.5 0.71875 0  0.53125 0.71875 0  0.5625 0.71875 0  0.59375 0.71875 0  0.625 0.71875 0  0.65625 0.71875 0  0.6875 0.71875 0  0.71875 0.71875 0  0.75 0.71875 0  0.78125 0.71875 0  0.8125 0.71875 0  0.84375 0.71875 0  0.875 0.71875 0  0.90625 0.71875 0  0.9375 0.71875 0  0.96875 0.71875 0  1 0.71875 0  0 0.75 0  0.03125 0.75 0  0.0625 0.75 0  0.09375 0.75 0  0.125 0.75 0  0.15625 0.75 0  0.1875 0.75 0  0.21875 0.75 0  0.25 0.75 0  0.28125 0.75 0  0.3125 0.75 0  0.34375 0.75 0  0.375 0.75 0  0.40625 0.75 0  0.4375 0.75 0  0.46875 0.75 0  0.5 0.75 0  0.53125 0.75 0  0.5625 0.75 0  0.59375 0.75 0  0.625 0.75 0  0.65625 0.75 0  0.6875 0.75 0  0.71875 0.75 0  0.75 0.75 0  0.78125 0.75 0  0.8125 0.75 0  0.84375 0.75 0  0.875 0.75 0  0.90625 0.75 0  0.9375 0.75 0  0.96875 0.75 0  1 0.75 0  0 0.78125 0  0.03125 0.78125 0  0.0625 0.78125 0  0.09375 0.78125 0  0.125 0.78125 0  0.15625 0.78125 0  0.1875 0.78125 0  0.21875 0.78125 0  0.25 0.78125 0  0.28125 0.78125 0  0.3125 0.78125 0  0.34375 0.78125 0  0.375 0.78125 0  0.40625 0.78125 0  0.4375 0.78125 0  0.46875 0.78125 0  0.5 0.78125 0  0.53125 0.78125 0  0.5625 0.78125 0  0.59375 0.78125 0  0.625 0.78125 0  0.65625 0.78125 0  0.6875 0.78125 0  0.71875 0.78125 0  0.75 0.78125 0  0.78125 0.78125 0  0.8125 0.78125 0  0.84375 0.78125 0  0.875 0.78125 0  0.90625 0.78125 0  0.9375 0.78125 0  0.96875 0.78125 0  1 0.78125 0  0 0.8125 0  0.03125 0.8125 0  0.0625 0.8125 0  0.09375 0.8125 0  0.125 0.8125 0  0.15625 0.8125 0  0.1875 0.8125 0  0.21875 0.8125 0  0.25 0.8125 0  0.28125 0.8125 0  0.3125 0.8125 0  0.34375 0.8125 0  0.375 0.8125 0  0.40625 0.8125 0  0.4375 0.8125 0  0.46875 0.8125 0  0.5 0.8125 0  0.53125 0.8125 0  0.5625 0.8125 0  0.59375 0.8125 0  0.625 0.8125 0  0.65625 0.8125 0  0.6875 0.8125 0  0.71875 0.8125 0  0.75 0.8125 0  0.78125 0.8125 0  0.8125 0.8125 0  0.84375 0.8125 0  0.875 0.8125 0  0.90625 0.8125 0  0.9375 0.8125 0  0.96875 0.8125 0  1 0.8125 0  0 0.84375 0  0.03125 0.84375 0  0.0625 0.84375 0  0.09375 0.84375 0  0.125 0.84375 0  0.15625 0.84375 0  0.1875 0.84375 0  0.21875 0.84375 0  0.25 0.84375 0  0.28125 0.84375 0  0.3125 0.84375 0  0.34375 0.84375 0  0.375 0.84375 0  0.40625 0.84375 0  0.4375 0.84375 0  0.46875 0.84375 0  0.5 0.84375 0  0.53125 0.84375 0  0.5625 0.84375 0  0.59375 0.84375 0  0.625 0.84375 0  0.65625 0.84375 0  0.6875 0.84375 0  0.71875 0.84375 0  0.75 0.84375 0  0.78125 0.84375 0  0.8125 0.84375 0  0.84375 0.84375 0  0.875 0.84375 0  0.90625 0.84375 0  0.9375 0.84375 0  0.96875 0.84375 0  1 0.84375 0  0 0.875 0  0.03125 0.875 0  0.0625 0.875 0  0.09375 0.875 0  0.125 0.875 0  0.15625 0.875 0  0.1875 0.875 0  0.21875 0.875 0  0.25 0.875 0  0.28125 0.875 0  0.3125 0.875 0  0.34375 0.875 0  0.375 0.875 0  0.40625 0.875 0  0.4375 0.875 0  0.46875 0.875 0  0.5 0.875 0  0.53125 0.875 0  0.5625 0.875 0  0.59375 0.875 0  0.625 0.875 0  0.65625 0.875 0  0.6875 0.875 0  0.71875 0.875 0  0.75 0.875 0  0.78125 0.875 0  0.8125 0.875 0  0.84375 0.875 0  0.875 0.875 0  0.90625 0.875 0  0.9375 0.875 0  0.96875 0.875 0  1 0.875 0  0 0.90625 0  0.03125 0.90625 0  0.0625 0.90625 0  0.09375 0.90625 0  0.125 0.90625 0  0.15625 0.90625 0  0.1875 0.90625 0  0.21875 0.90625 0  0.25 0.90625 0  0.28125 0.90625 0  0.3125 0.90625 0  0.34375 0.90625 0  0.375 0.90625 0  0.40625 0.90625 0  0.4375 0.90625 0  0.46875 0.90625 0  0.5 0.90625 0  0.53125 0.90625 0  0.5625 0.90625 0  0.59375 0.90625 0  0.625 0.90625 0  0.65625 0.90625 0  0.6875 0.90625 0  0.71875 0.90625 0  0.75 0.90625 0  0.78125 0.90625 0  0.8125 0.90625 0  0.84375 0.90625 0  0.875 0.90625 0  0.90625 0.90625 0  0.9375 0.90625 0  0.96875 0.90625 0  1 0.90625 0  0 0.9375 0  0.03125 0.9375 0  0.0625 0.9375 0  0.09375 0.9375 0  0.125 0.9375 0  0.15625 0.9375 0  0.1875 0.9375 0  0.21875 0.9375 0  0.25 0.9375 0  0.28125 0.9375 0  0.3125 0.9375 0  0.34375 0.9375 0  0.375 0.9375 0  0.40625 0.9375 0  0.4375 0.9375 0  0.46875 0.9375 0  0.5 0.9375 0  0.53125 0.9375 0  0.5625 0.9375 0  0.59375 0.9375 0  0.625 0.9375 0  0.65625 0.9375 0  0.6875 0.9375 0  0.71875 0.9375 0  0.75 0.9375 0  0.78125 0.9375 0  0.8125 0.9375 0  0.84375 0.9375 0  0.875 0.9375 0  0.90625 0.9375 0  0.9375 0.9375 0  0.96875 0.9375 0  1 0.9375 0  0 0.96875 0  0.03125 0.96875 0  0.0625 0.96875 0  0.09375 0.96875 0  0.125 0.96875 0  0.15625 0.96875 0  0.1875 0.96875 0  0.21875 0.96875 0  0.25 0.96875 0  0.28125 0.96875 0  0.3125 0.96875 0  0.34375 0.96875 0  0.375 0.96875 0  0.40625 0.96875 0  0.4375 0.96875 0  0.46875 0.96875 0  0.5 0.96875 0  0.53125 0.96875 0  0.5625 0.96875 0  0.59375 0.96875 0  0.625 0.96875 0  0.65625 0.96875 0  0.6875 0.96875 0  0.71875 0.96875 0  0.75 0.96875 0  0.78125 0.96875 0  0.8125 0.96875 0  0.84375 0.96875 0  0.875 0.96875 0  0.90625 0.96875 0  0.9375 0.96875 0  0.96875 0.96875 0  1 0.96875 0  0 1 0  0.03125 1 0  0.0625 1 0  0.09375 1 0  0.125 1 0  0.15625 1 0  0.1875 1 0  0.21875 1 0  0.25 1 0  0.28125 1 0  0.3125 1 0  0.34375 1 0  0.375 1 0  0.40625 1 0  0.4375 1 0  0.46875 1 0  0.5 1 0  0.53125 1 0  0.5625 1 0  0.59375 1 0  0.625 1 0  0.65625 1 0  0.6875 1 0  0.71875 1 0  0.75 1 0  0.78125 1 0  0.8125 1 0  0.84375 1 0  0.875 1 0  0.90625 1 0  0.9375 1 0  0.96875 1 0  1 1 0  </DataArray>
</Points>
<Cells>
<DataArray  type="UInt32"  Name="connectivity"  format="ascii">0 1 34  0 33 34  1 2 35  1 34 35  2 3 36  2 35 36  3 4 37  3 36 37  4 5 38  4 37 38  5 6 39  5 38 39  6 7 40  6 39 40  7 8 41  7 40 41  8 9 42  8 41 42  9 10 43  9 42 43  10 11 44  10 43 44  11 12 45  11 44 45  12 13 46  12 45 46  13 14 47  13 46 47  14 15 48  14 47 48  15 16 49  15 48 49  16 17 50  16 49 50  17 18 51  17 50 51  18 19 52  18 51 52  19 20 53  19 52 53  20 21 54  20 53 54  21 22 55  21 54 55  22 23 56  22 55 56  23 24 57  23 56 57  24 25 58  24 57 58  25 26 59  25 58 59  26 27 60  26 59 60  27 28 61  27 60 61  28 29 62  28 61 62  29 30 63  29 62 63  30 31 64  30 63 64  31 32 65  31 64 65  33 34 67  33 66 67  34 35 68  34 67 68  35 36 69  35 68 69  36 37 70  36 69 70  37 38 71  37 70 71  38 39 72  38 71 72  39 40 73  39 72 73  40 41 74  40 73 74  41 42 75  41 74 75  42 43 76  42 75 76  43 44 77  43 76 77  44 45 78  44 77 78  45 46 79  45 78 79  46 47 80  46 79 80  47 48 81  47 80 81  48 49 82  48 81 82  49 50 83  49 82 83  50 51 84  50 83 84  51 52 85  51 84 85  52 53 86  52 85 86  53 54 87  53 86 87  54 55 88  54 87 88  55 56 89  55 88 89  56 57 90  56 89 90  57 58 91  57 90 91  58 59 92  58 91 92  59 60 93  59 92 93  60 61 94  60 93 94  61 62 95  61 94 95  62 63 96  62 95 96  63 64 97  63 96 97  64 65 98  64 97 98  66 67 100  66 99 100  67 68 101  67 100 101  68 69 102  68 101 102  69 70 103  69 102 103  70 71 104  70 103 104  71 72 105  71 104 105  72 73 106  72 105 106  73 74 107  73 106 107  74 75 108  74 107 108  75 76 109  75 108 109  76 77 110  76 109 110  77 78 111  77 110 111  78 79 112  78 111 112  79 80 113  79 112 113  80 81 114  80 113 114  81 82 115  81 114 115  82 83 116  82 115 116  83 84 117  83 116 117  84 85 118  84 117 118  85 86 119  85 118 119  86 87 120  86 119 120  87 88 121  87 120 121  88 89 122  88 121 122  89 90 123  89 122 123  90 91 124  90 123 124  91 92 125  91 124 125  92 93 126  92 125 126  93 94 127  93 126 127  94 95 128  94 127 128  95 96 129  95 128 129  96 97 130  96 129 130  97 98 131  97 130 131  99 100 133  99 132 133  100 101 134  100 133 134  101 102 135  101 134 135  102 103 136  102 135 136  103 104 137  103 136 137  104 105 138  104 137 138  105 106 139  105 138 139  106 107 140  106 139 140  107 108 141  107 140 141  108 109 142  108 141 142  109 110 143  109 142 143  110 111 144  110 143 144  111 112 145  111 144 145  112 113 146  112 145 146  113 114 147  113 146 147  114 115 148  114 147 148  115 116 149  115 148 149  116 117 150  116 149 150  117 118 151  117 150 151  118 119 152  118 151 152  119 120 153  119 152 153  120 121 154  120 153 154  121 122 155  121 154 155  122 123 156  122 155 156  123 124 157  123 156 157  124 125 158  124 157 158  125 126 159  125 158 159  126 127 160  126 159 160  127 128 161  127 160 161  128 129 162  128 161 162  129 130 163  129 162 163  130 131 164  130 163 164  132 133 166  132 165 166  133 134 167  133 166 167  134 135 168  134 167 168  135 136 169  135 168 169  136 137 170  136 169 170  137 138 171  137 170 171  138 139 172  138 171 172  139 140 173  139 172 173  140 141 174  140 173 174  141 142 175  141 174 175  142 143 176  142 175 176  143 144 177  143 176 177  144 145 178  144 177 178  145 146 179  145 178 179  146 147 180  146 179 180  147 148 181  147 180 181  148 149 182  148 181 182  149 150 183  149 182 183  150 151 184  150 183 184  151 152 185  151 184 185  152 153 186  152 185 186  153 154 187  153 186 187  154 155 188  154 187 188  155 156 189  155 188 189  156 157 190  156 189 190  157 158 191  157 190 191  158 159 192  158 191 192  159 160 193  159 192 193  160 161 194  160 193 194  161 162 195  161 194 195  162 163 196  162 195 196  163 164 197  163 196 197  165 166 199  165 198 199  166 167 200  166 199 200  167 168 201  167 200 201  168 169 202  168 201 202  169 170 203  169 202 203  170 171 204  170 203 204  171 172 205  171 204 205  172 173 206  172 205 206  173 174 207  173 206 207  174 175 208  174 207 208  175 176 209  175 208 209  176 177 210  176 209 210  177 178 211  177 210 211  178 179 212  178 211 212  179 180 213  179 212 213  180 181 214  180 213 214  181 182 215  181 214 215  182 183 216  182 215 216  183 184 217  183 216 217  184 185 218  184 217 218  185 186 219  185 218 219  186 187 220  186 219 220  187 188 221  187 220 221  188 189 222  188 221 222  189 190 223  189 222 223  190 191 224  190 223 224  191 192 225  191 224 225  192 193 226  192 225 226  193 194 227  193 226 227  194 195 228  194 227 228  195 196 229  195 228 229  196 197 230  196 229 230  198 199 232  198 231 232  199 200 233  199 232 233  200 201 234  200 233 234  201 202 235  201 234 235  202 203 236  202 235 236  203 204 237  203 236 237  204 205 238  204 237 238  205 206 239  205 238 239  206 207 240  206 239 240  207 208 241  207 240 241  208 209 242  208 241 242  209 210 243  209 242 243  210 211 244  210 243 244  211 212 245  211 244 245  212 213 246  212 245 246  213 214 247  213 246 247  214 215 248  214 247 248  215 216 249  215 248 249  216 217 250  216 249 250  217 218 251  217 250 251  218 219 252  218 251 252  219 220 253  219 252 253  220 221 254  220 253 254  221 222 255  221 254 255  222 223 256  222 255 256  223 224 257  223 256 257  224 225 258  224 257 258  225 226 259  225 258 259  226 227 260  226 259 260  227 228 261  227 260 261  228 229 262  228 261 262  229 230 263  229 262 263  231 232 265  231 264 265  232 233 266  232 265 266  233 234 267  233 266 267  234 235 268  234 267 268  235 236 269  235 268 269  236 237 270  236 269 270  237 238 271  237 270 271  238 239 272  238 271 272  239 240 273  239 272 273  240 241 274  240 273 274  241 242 275  241 274 275  242 243 276  242 275 276  243 244 277  243 276 277  244 245 278  244 277 278  245 246 279  245 278 279  246 247 280  246 279 280  247 248 281  247 280 281  248 249 282  248 281 282  249 250 283  249 282 283  250 251 284  250 283 284  251 252 285  251 284 285  252 253 286  252 285 286  253 254 287  253 286 287  254 255 288  254 287 288  255 256 289  255 288 289  256 257 290  256 289 290  257 258 291  257 290 291  258 259 292  258 291 292  259 260 293  259 292 293  260 261 294  260 293 294  261 262 295  261 294 295  262 263 296  262 295 296  264 265 298  264 297 298  265 266 299  265 298 299  266 267 300  266 299 300  267 268 301  267 300 301  268 269 302  268 301 302  269 270 303  269 302 303  270 271 304  270 303 304  271 272 305  271 304 305  272 273 306  272 305 306  273 274 307  273 306 307  274 275 308  274 307 308  275 276 309  275 308 309  276 277 310  276 309 310  277 278 311  277 310 311  278 279 312  278 311 312  279 280 313  279 312 313  280 281 314  280 313 314  281 282 315  281 314 315  282 283 316  282 315 316  283 284 317  283 316 317  284 285 318  284 317 318  285 286 319  285 318 319  286 287 320  286 319 320  287 288 321  287 320 321  288 289 322  288 321 322  289 290 323  289 322 323  290 291 324  290 323 324  291 292 325  291 324 325  292 293 326  292 325 326  293 294 327  293 326 327  294 295 328  294 327 328  295 296 329  295 328 329  297 298 331  297 330 331  298 299 332  298 331 332  299 300 333  299 332 333  300 301 334  300 333 334  301 302 335  301 334 335  302 303 336  302 335 336  303 304 337  303 336 337  304 305 338  304 337 338  305 306 339  305 338 339  306 307 340  306 339 340  307 308 341  307 340 341  308 309 342  308 341 342  309 310 343  309 342 343  310 311 344  310 343 344  311 312 345  311 344 345  312 313 346  312 345 346  313 314 347  313 346 347  314 315 348  314 347 348  315 316 349  315 348 349  316 317 350  316 349 350  317 318 351  317 350 351  318 319 352  318 351 352  319 320 353  319 352 353  320 321 354  320 353 354  321 322 355  321 354 355  322 323 356  322 355 356  323 324 357  323 356 357  324 325 358  324 357 358  325 326 359  325 358 359  326 327 360  326 359 360  327 328 361  327 360 361  328 329 362  328 361 362  330 331 364  330 363 364  331 332 365  331 364 365  332 333 366  332 365 366  333 334 367  333 366 367  334 335 368  334 367 368  335 336 369  335 368 369  336 337 370  336 369 370  337 338 371  337 370 371  338 339 372  338 371 372  339 340 373  339 372 373  340 341 374  340 373 374  341 342 375  341 374 375  342 343 376  342 375 376  343 344 377  343 376 377  344 345 378  344 377 378  345 346 379  345 378 379  346 347 380  346 379 380  347 348 381  347 380 381  348 349 382  348 381 382  349 350 383  349 382 383  350 351 384  350 383 384  351 352 385  351 384 385  352 353 386  352 385 386  353 354 387  353 386 387  354 355 388  354 387 388  355 356 389  355 388 389  356 357 390  356 389 390  357 358 391  357 390 391  358 359 392  358 391 392  359 360 393  359 392 393  360 361 394  360 393 394  361 362 395  361 394 395  363 364 397  363 396 397  364 365 398  364 397 398  365 366 399  365 398 399  366 367 400  366 399 400  367 368 401  367 400 401  368 369 402  368 401 402  369 370 403  369 402 403  370 371 404  370 403 404  371 372 405  371 404 405  372 373 406  372 405 406  373 374 407  373 406 407  374 375 408  374 407 408  375 376 409  375 408 409  376 377 410  376 409 410  377 378 411  377 410 411  378 379 412  378 411 412  379 380 413  379 412 413  380 381 414  380 413 414  381 382 415  381 414 415  382 383 416  382 415 416  383 384 417  383 416 417  384 385 418  384 417 418  385 386 419  385 418 419  386 387 420  386 419 420  387 388 421  387 420 421  388 389 422  388 421 422  389 390 423  389 422 423  390 391 424  390 423 424  391 392 425  391 424 425  392 393 426  392 425 426  393 394 427  393 426 427  394 395 428  394 427 428  396 397 430  396 429 430  397 398 431  397 430 431  398 399 432  398 431 432  399 400 433  399 432 433  400 401 434  400 433 434  401 402 435  401 434 435  402 403 436  402 435 436  403 404 437  403 436 437  404 405 438  404 437 438  405 406 439  405 438 439  406 407 440  406 439 440  407 408 441  407 440 441  408 409 442  408 441 442  409 410 443  409 442 443  410 411 444  410 443 444  411 412 445  411 444 445  412 413 446  412 445 446  413 414 447  413 446 447  414 415 448  414 447 448  415 416 449  415 448 449  416 417 450  416 449 450  417 418 451  417 450 451  418 419 452  418 451 452  419 420 453  419 452 453  420 421 454  420 453 454  421 422 455  421 454 455  422 423 456  422 455 456  423 424 457  423 456 457  424 425 458  424 457 458  425 426 459  425 458 459  426 427 460  426 459 460  427 428 461  427 460 461  429 430 463  429 462 463  430 431 464  430 463 464  431 432 465  431 464 465  432 433 466  432 465 466  433 434 467  433 466 467  434 435 468  434 467 468  435 436 469  435 468 469  436 437 470  436 469 470  437 438 471  437 470 471  438 439 472  438 471 472  439 440 473  439 472 473  440 441 474  440 473 474  441 442 475  441 474 475  442 443 476  442 475 476  443 444 477  443 476 477  444 445 478  444 477 478  445 446 479  445 478 479  446 447 480  446 479 480  447 448 481  447 480 481  448 449 482  448 481 482  449 450 483  449 482 483  450 451 484  450 483 484  451 452 485  451 484 485  452 453 486  452 485 486  453 454 487  453 486 487  454 455 488  454 487 488  455 456 489  455 488 489  456 457 490  456 489 490  457 458 491  457 490 491  458 459 492  458 491 492  459 460 493  459 492 493  460 461 494  460 493 494  462 463 496  462 495 496  463 464 497  463 496 497  464 465 498  464 497 498  465 466 499  465 498 499  466 467 500  466 499 500  467 468 501  467 500 501  468 469 502  468 501 502  469 470 503  469 502 503  470 471 504  470 503 504  471 472 505  471 504 505  472 473 506  472 505 506  473 474 507  473 506 507  474 475 508  474 507 508  475 476 509  475 508 509  476 477 510  476 509 510  477 478 511  477 510 511  478 479 512  478 511 512  479 480 513  479 512 513  480 481 514  480 513 514  481 482 515  481 514 515  482 483 516  482 515 516  483 484 517  483 516 517  484 485 518  484 517 518  485 486 519  485 518 519  486 487 520  486 519 520  487 488 521  487 520 521  488 489 522  488 521 522  489 490 523  489 522 523  490 491 524  490 523 524  491 492 525  491 524 525  492 493 526  492 525 526  493 494 527  493 526 527  495 496 529  495 528 529  496 497 530  496 529 530  497 498 531  497 530 531  498 499 532  498 531 532  499 500 533  499 532 533  500 501 534  500 533 534  501 502 535  501 534 535  502 503 536  502 535 536  503 504 537  503 536 537  504 505 538  504 537 538  505 506 539  505 538 539  506 507 540  506 539 540  507 508 541  507 540 541  508 509 542  508 541 542  509 510 543  509 542 543  510 511 544  510 543 544  511 512 545  511 544 545  512 513 546  512 545 546  513 514 547  513 546 547  514 515 548  514 547 548  515 516 549  515 548 549  516 517 550  516 549 550  517 518 551  517 550 551  518 519 552  518 551 552  519 520 553  519 552 553  520 521 554  520 553 554  521 522 555  521 554 555  522 523 556  522 555 556  523 524 557  523 556 557  524 525 558  524 557 558  525 526 559  525 558 559  526 527 560  526 559 560  528 529 562  528 561 562  529 530 563  529 562 563  530 531 564  530 563 564  531 532 565  531 564 565  532 533 566  532 565 566  533 534 567  533 566 567  534 535 568  534 567 568  535 536 569  535 568 569  536 537 570  536 569 570  537 538 571  537 570 571  538 539 572  538 571 572  539 540 573  539 572 573  540 541 574  540 573 574  541 542 575  541 574 575  542 543 576  542 575 576  543 544 577  543 576 577  544 545 578  544 577 578  545 546 579  545 578 579  546 547 580  546 579 580  547 548 581  547 580 581  548 549 582  548 581 582  549 550 583  549 582 583  550 551 584  550 583 584  551 552 585  551 584 585  552 553 586  552 585 586  553 554 587  553 586 587  554 555 588  554 587 588  555 556 589  555 588 589  556 557 590  556 589 590  557 558 591  557 590 591  558 559 592  558 591 592  559 560 593  559 592 593  561 562 595  561 594 595  562 563 596  562 595 596  563 564 597  563 596 597  564 565 598  564 597 598  565 566 599  565 598 599  566 567 600  566 599 600  567 568 601  567 600 601  568 569 602  568 601 602  569 570 603  569 602 603  570 571 604  570 603 604  571 572 605  571 604 605  572 573 606  572 605 606  573 574 607  573 606 607  574 575 608  574 607 608  575 576 609  575 608 609  576 577 610  576 609 610  577 578 611  577 610 611  578 579 612  578 611 612  579 580 613  579 612 613  580 581 614  580 613 614  581 582 615  581 614 615  582 583 616  582 615 616  583 584 617  583 616 617  584 585 618  584 617 618  585 586 619  585 618 619  586 587 620  586 619 620  587 588 621  587 620 621  588 589 622  588 621 622  589 590 623  589 622 623  590 591 624  590 623 624  591 592 625  591 624 625  592 593 626  592 625 626  594 595 628  594 627 628  595 596 629  595 628 629  596 597 630  596 629 630  597 598 631  597 630 631  598 599 632  598 631 632  599 600 633  599 632 633  600 601 634  600 633 634  601 602 635  601 634 635  602 603 636  602 635 636  603 604 637  603 636 637  604 605 638  604 637 638  605 606 639  605 638 639  606 607 640  606 639 640  607 608 641  607 640 641  608 609 642  608 641 642  609 610 643  609 642 643  610 611 644  610 643 644  611 612 645  611 644 645  612 613 646  612 645 646  613 614 647  613 646 647  614 615 648  614 647 648  615 616 649  615 648 649  616 617 650  616 649 650  617 618 651  617 650 651  618 619 652  618 651 652  619 620 653  619 652 653  620 621 654  620 653 654  621 622 655  621 654 655  622 623 656  622 655 656  623 624 657  623 656 657  624 625 658  624 657 658  625 626 659  625 658 659  627 628 661  627 660 661  628 629 662  628 661 662  629 630 663  629 662 663  630 631 664  630 663 664  631 632 665  631 664 665  632 633 666  632 665 666  633 634 667  633 666 667  634 635 668  634 667 668  635 636 669  635 668 669  636 637 670  636 669 670  637 638 671  637 670 671  638 639 672  638 671 672  639 640 673  639 672 673  640 641 674  640 673 674  641 642 675  641 674 675  642 643 676  642 675 676  643 644 677  643 676 677  644 645 678  644 677 678  645 646 679  645 678 679  646 647 680  646 679 680  647 648 681  647 680 681  648 649 682  648 681 682  649 650 683  649 682 683  650 651 684  650 683 684  651 652 685  651 684 685  652 653 686  652 685 686  653 654 687  653 686 687  654 655 688  654 687 688  655 656 689  655 688 689  656 657 690  656 689 690  657 658 691  657 690 691  658 659 692  658 691 692  660 661 694  660 693 694  661 662 695  661 694 695  662 663 696  662 695 696  663 664 697  663 696 697  664 665 698  664 697 698  665 666 699  665 698 699  666 667 700  666 699 700  667 668 701  667 700 701  668 669 702  668 701 702  669 670 703  669 702 703  670 671 704  670 703 704  671 672 705  671 704 705  672 673 706  672 705 706  673 674 707  673 706 707  674 675 708  674 707 708  675 676 709  675 708 709  676 677 710  676 709 710  677 678 711  677 710 711  678 679 712  678 711 712  679 680 713  679 712 713  680 681 714  680 713 714  681 682 715  681 714 715  682 683 716  682 715 716  683 684 717  683 716 717  684 685 718  684 717 718  685 686 719  685 718 719  686 687 720  686 719 720  687 688 721  687 720 721  688 689 722  688 721 722  689 690 723  689 722 723  690 691 724  690 723 724  691 692 725  691 724 725  693 694 727  693 726 727  694 695 728  694 727 728  695 696 729  695 728 729  696 697 730  696 729 730  697 698 731  697 730 731  698 699 732  698 731 732  699 700 733  699 732 733  700 701 734  700 733 734  701 702 735  701 734 735  702 703 736  702 735 736  703 704 737  703 736 737  704 705 738  704 737 738  705 706 739  705 738 739  706 707 740  706 739 740  707 708 741  707 740 741  708 709 742  708 741 742  709 710 743  709 742 743  710 711 744  710 743 744  711 712 745  711 744 745  712 713 746  712 745 746  713 714 747  713 746 747  714 715 748  714 747 748  715 716 749  715 748 749  716 717 750  716 749 750  717 718 751  717 750 751  718 719 752  718 751 752  719 720 753  719 752 753  720 721 754  720 753 754  721 722 755  721 754 755  722 723 756  722 755 756  723 724 757  723 756 757  724 725 758  724 757 758  726 727 760  726 759 760  727 728 761  727 760 761  728 729 762  728 761 762  729 730 763  729 762 763  730 731 764  730 763 764  731 732 765  731 764 765  732 733 766  732 765 766  733 734 767  733 766 767  734 735 768  734 767 768  735 736 769  735 768 769  736 737 770  736 769 770  737 738 771  737 770 771  738 739 772  738 771 772  739 740 773  739 772 773  740 741 774  740 773 774  741 742 775  741 774 775  742 743 776  742 775 776  743 744 777  743 776 777  744 745 778  744 777 778  745 746 779  745 778 779  746 747 780  746 779 780  747 748 781  747 780 781  748 749 782  748 781 782  749 750 783  749 782 783  750 751 784  750 783 784  751 752 785  751 784 785  752 753 786  752 785 786  753 754 787  753 786 787  754 755 788  754 787 788  755 756 789  755 788 789  756 757 790  756 789 790  757 758 791  757 790 791  759 760 793  759 792 793  760 761 794  760 793 794  761 762 795  761 794 795  762 763 796  762 795 796  763 764 797  763 796 797  764 765 798  764 797 798  765 766 799  765 798 799  766 767 800  766 799 800  767 768 801  767 800 801  768 769 802  768 801 802  769 770 803  769 802 803  770 771 804  770 803 804  771 772 805  771 804 805  772 773 806  772 805 806  773 774 807  773 806 807  774 775 808  774 807 808  775 776 809  775 808 809  776 777 810  776 809 810  777 778 811  777 810 811  778 779 812  778 811 812  779 780 813  779 812 813  780 781 814  780 813 814  781 782 815  781 814 815  782 783 816  782 815 816  783 784 817  783 816 817  784 785 818  784 817 818  785 786 819  785 818 819  786 787 820  786 819 820  787 788 821  787 820 821  788 789 822  788 821 822  789 790 823  789 822 823  790 791 824  790 823 824  792 793 826  792 825 826  793 794 827  793 826 827  794 795 828  794 827 828  795 796 829  795 828 829  796 797 830  796 829 830  797 798 831  797 830 831  798 799 832  798 831 832  799 800 833  799 832 833  800 801 834  800 833 834  801 802 835  801 834 835  802 803 836  802 835 836  803 804 837  803 836 837  804 805 838  804 837 838  805 806 839  805 838 839  806 807 840  806 839 840  807 808 841  807 840 841  808 809 842  808 841 842  809 810 843  809 842 843  810 811 844  810 843 844  811 812 845  811 844 845  812 813 846  812 845 846  813 814 847  813 846 847  814 815 848  814 847 848  815 816 849  815 848 849  816 817 850  816 849 850  817 818 851  817 850 851  818 819 852  818 851 852  819 820 853  819 852 853  820 821 854  820 853 854  821 822 855  821 854 855  822 823 856  822 855 856  823 824 857  823 856 857  825 826 859  825 858 859  826 827 860  826 859 860  827 828 861  827 860 861  828 829 862  828 861 862  829 830 863  829 862 863  830 831 864  830 863 864  831 832 865  831 864 865  832 833 866  832 865 866  833 834 867  833 866 867  834 835 868  834 867 868  835 836 869  835 868 869  836 837 870  836 869 870  837 838 871  837 870 871  838 839 872  838 871 872  839 840 873  839 872 873  840 841 874  840 873 874  841 842 875  841 874 875  842 843 876  842 875 876  843 844 877  843 876 877  844 845 878  844 877 878  845 846 879  845 878 879  846 847 880  846 879 880  847 848 881  847 880 881  848 849 882  848 881 882  849 850 883  849 882 883  850 851 884  850 883 884  851 852 885  851 884 885  852 853 886  852 885 886  853 854 887  853 886 887  854 855 888  854 887 888  855 856 889  855 888 889  856 857 890  856 889 890  858 859 892  858 891 892  859 860 893  859 892 893  860 861 894  860 893 894  861 862 895  861 894 895  862 863 896  862 895 896  863 864 897  863 896 897  864 865 898  864 897 898  865 866 899  865 898 899  866 867 900  866 899 900  867 868 901  867 900 901  868 869 902  868 901 902  869 870 903  869 902 903  870 871 904  870 903 904  871 872 905  871 904 905  872 873 906  872 905 906  873 874 907  873 906 907  874 875 908  874 907 908  875 876 909  875 908 909  876 877 910  876 909 910  877 878 911  877 910 911  878 879 912  878 911 912  879 880 913  879 912 913  880 881 914  880 913 914  881 882 915  881 914 915  882 883 916  882 915 916  883 884 917  883 916 917  884 885 918  884 917 918  885 886 919  885 918 919  886 887 920  886 919 920  887 888 921  887 920 921  888 889 922  888 921 922  889 890 923  889 922 923  891 892 925  891 924 925  892 893 926  892 925 926  893 894 927  893 926 927  894 895 928  894 927 928  895 896 929  895 928 929  896 897 930  896 929 930  897 898 931  897 930 931  898 899 932  898 931 932  899 900 933  899 932 933  900 901 934  900 933 934  901 902 935  901 934 935  902 903 936  902 935 936  903 904 937  903 936 937  904 905 938  904 937 938  905 906 939  905 938 939  906 907 940  906 939 940  907 908 941  907 940 941  908 909 942  908 941 942  909 910 943  909 942 943  910 911 944  910 943 944  911 912 945  911 944 945  912 913 946  912 945 946  913 914 947  913 946 947  914 915 948  914 947 948  915 916 949  915 948 949  916 917 950  916 949 950  917 918 951  917 950 951  918 919 952  918 951 952  919 920 953  919 952 953  920 921 954  920 953 954  921 922 955  921 954 955  922 923 956  922 955 956  924 925 958  924 957 958  925 926 959  925 958 959  926 927 960  926 959 960  927 928 961  927 960 961  928 929 962  928 961 962  929 930 963  929 962 963  930 931 964  930 963 964  931 932 965  931 964 965  932 933 966  932 965 966  933 934 967  933 966 967  934 935 968  934 967 968  935 936 969  935 968 969  936 937 970  936 969 970  937 938 971  937 970 971  938 939 972  938 971 972  939 940 973  939 972 973  940 941 974  940 973 974  941 942 975  941 974 975  942 943 976  942 975 976  943 944 977  943 976 977  944 945 978  944 977 978  945 946 979  945 978 979  946 947 980  946 979 980  947 948 981  947 980 981  948 949 982  948 981 982  949 950 983  949 982 983  950 951 984  950 983 984  951 952 985  951 984 985  952 953 986  952 985 986  953 954 987  953 986 987  954 955 988  954 987 988  955 956 989  955 988 989  957 958 991  957 990 991  958 959 992  958 991 992  959 960 993  959 992 993  960 961 994  960 993 994  961 962 995  961 994 995  962 963 996  962 995 996  963 964 997  963 996 997  964 965 998  964 997 998  965 966 999  965 998 999  966 967 1000  966 999 1000  967 968 1001  967 1000 1001  968 969 1002  968 1001 1002  969 970 1003  969 1002 1003  970 971 1004  970 1003 1004  971 972 1005  971 1004 1005  972 973 1006  972 1005 1006  973 974 1007  973 1006 1007  974 975 1008  974 1007 1008  975 976 1009  975 1008 1009  976 977 1010  976 1009 1010  977 978 1011  977 1010 1011  978 979 1012  978 1011 1012  979 980 1013  979 1012 1013  980 981 1014  980 1013 1014  981 982 1015  981 1014 1015  982 983 1016  982 1015 1016  983 984 1017  983 1016 1017  984 985 1018  984 1017 1018  985 986 1019  985 1018 1019  986 987 1020  986 1019 1020  987 988 1021  987 1020 1021  988 989 1022  988 1021 1022  990 991 1024  990 1023 1024  991 992 1025  991 1024 1025  992 993 1026  992 1025 1026  993 994 1027  993 1026 1027  994 995 1028  994 1027 1028  995 996 1029  995 1028 1029  996 997 1030  996 1029 1030  997 998 1031  997 1030 1031  998 999 1032  998 1031 1032  999 1000 1033  999 1032 1033  1000 1001 1034  1000 1033 1034  1001 1002 1035  1001 1034 1035  1002 1003 1036  1002 1035 1036  1003 1004 1037  1003 1036 1037  1004 1005 1038  1004 1037 1038  1005 1006 1039  1005 1038 1039  1006 1007 1040  1006 1039 1040  1007 1008 1041  1007 1040 1041  1008 1009 1042  1008 1041 1042  1009 1010 1043  1009 1042 1043  1010 1011 1044  1010 1043 1044  1011 1012 1045  1011 1044 1045  1012 1013 1046  1012 1045 1046  1013 1014 1047  1013 1046 1047  1014 1015 1048  1014 1047 1048  1015 1016 1049  1015 1048 1049  1016 1017 1050  1016 1049 1050  1017 1018 1051  1017 1050 1051  1018 1019 1052  1018 1051 1052  1019 1020 1053  1019 1052 1053  1020 1021 1054  1020 1053 1054  1021 1022 1055  1021 1054 1055  1023 1024 1057  1023 1056 1057  1024 1025 1058  1024 1057 1058  1025 1026 1059  1025 1058 1059  1026 1027 1060  1026 1059 1060  1027 1028 1061  1027 1060 1061  1028 1029 1062  1028 1061 1062  1029 1030 1063  1029 1062 1063  1030 1031 1064  1030 1063 1064  1031 1032 1065  1031 1064 1065  1032 1033 1066  1032 1065 1066  1033 1034 1067  1033 1066 1067  1034 1035 1068  1034 1067 1068  1035 1036 1069  1035 1068 1069  1036 1037 1070  1036 1069 1070  1037 1038 1071  1037 1070 1071  1038 1039 1072  1038 1071 1072  1039 1040 1073  1039 1072 1073  1040 1041 1074  1040 1073 1074  1041 1042 1075  1041 1074 1075  1042 1043 1076  1042 1075 1076  1043 1044 1077  1043 1076 1077  1044 1045 1078  1044 1077 1078  1045 1046 1079  1045 1078 1079  1046 1047 1080  1046 1079 1080  1047 1048 1081  1047 1080 1081  1048 1049 1082  1048 1081 1082  1049 1050 1083  1049 1082 1083  1050 1051 1084  1050 1083 1084  1051 1052 1085  1051 1084 1085  1052 1053 1086  1052 1085 1086  1053 1054 1087  1053 1086 1087  1054 1055 1088  1054 1087 1088  </DataArray>
<DataArray  type="UInt32"  Name="offsets"  format="ascii">3 6 9 12 15 18 21 24 27 30 33 36 39 42 45 48 51 54 57 60 63 66 69 72 75 78 81 84 87 90 93 96 99 102 105 108 111 114 117 120 123 126 129 132 135 138 141 144 147 150 153 156 159 162 165 168 171 174 177 180 183 186 189 192 195 198 201 204 207 210 213 216 219 222 225 228 231 234 237 240 243 246 249 252 255 258 261 264 267 270 273 276 279 282 285 288 291 294 297 300 303 306 309 312 315 318 321 324 327 330 333 336 339 342 345 348 351 354 357 360 363 366 369 372 375 378 381 384 387 390 393 396 399 402 405 408 411 414 417 420 423 426 429 432 435 438 441 444 447 450 453 456 459 462 465 468 471 474 477 480 483 486 489 492 495 498 501 504 507 510 513 516 519 522 525 528 531 534 537 540 543 546 549 552 555 558 561 564 567 570 573 576 579 582 585 588 591 594 597 600 603 606 609 612 615 618 621 624 627 630 633 636 639 642 645 648 651 654 657 660 663 666 669 672 675 678 681 684 687 690 693 696 699 702 705 708 711 714 717 720 723 726 729 732 735 738 741 744 747 750 753 756 759 762 765 768 771 774 777 780 783 786 789 792 795 798 801 804 807 810 813 816 819 822 825 828 831 834 837 840 843 846 849 852 855 858 861 864 867 870 873 876 879 882 885 888 891 894 897 900 903 906 909 912 915 918 921 924 927 930 933 936 939 942 945 948 951 954 957 960 963 966 969 972 975 978 981 984 987 990 993 996 999 1002 1005 1008 1011 1014 1017 1020 1023 1026 1029 1032 1035 1038 1041 1044 1047 1050 1053 1056 1059 1062 1065 1068 1071 1074 1077 1080 1083 1086 1089 1092 1095 1098 1101 1104 1107 1110 1113 1116 1119 1122 1125 1128 1131 1134 1137 1140 1143 1146 1149 1152 1155 1158 1161 1164 1167 1170 1173 1176 1179 1182 1185 1188 1191 1194 1197 1200 1203 1206 1209 1212 1215 1218 1221 1224 1227 1230 1233 1236 1239 1242 1245 1248 1251 1254 1257 1260 1263 1266 1269 1272 1275 1278 1281 1284 1287 1290 1293 1296 1299 1302 1305 1308 1311 1314 1317 1320 1323 1326 1329 1332 1335 1338 1341 1344 1347 1350 1353 1356 1359 1362 1365 1368 1371 1374 1377 1380 1383 1386 1389 1392 1395 1398 1401 1404 1407 1410 1413 1416 1419 1422 1425 1428 1431 1434 1437 1440 1443 1446 1449 1452 1455 1458 1461 1464 1467 1470 1473 1476 1479 1482 1485 1488 1491 1494 1497 1500 1503 1506 1509 1512 1515 1518 1521 1524 1527 1530 1533 1536 1539 1542 1545 1548 1551 1554 1557 1560 1563 1566 1569 1572 1575 1578 1581 1584 1587 1590 1593 1596 1599 1602 1605 1608 1611 1614 1617 1620 1623 1626 1629 1632 1635 1638 1641 1644 1647 1650 1653 1656 1659 1662 1665 1668 1671 1674 1677 1680 1683 1686 1689 1692 1695 1698 1701 1704 1707 1710 1713 1716 1719 1722 1725 1728 1731 1734 1737 1740 1743 1746 1749 1752 1755 1758 1761 1764 1767 1770 1773 1776 1779 1782 1785 1788 1791 1794 1797 1800 1803 1806 1809 1812 1815 1818 1821 1824 1827 1830 1833 1836 1839 1842 1845 1848 1851 1854 1857 1860 1863 1866 1869 1872 1875 1878 1881 1884 1887 1890 1893 1896 1899 1902 1905 1908 1911 1914 1917 1920 1923 1926 1929 1932 1935 1938 1941 1944 1947 1950 1953 1956 1959 1962 1965 1968 1971 1974 1977 1980 1983 1986 1989 1992 1995 1998 2001 2004 2007 2010 2013 2016 2019 2022 2025 2028 2031 2034 2037 2040 2043 2046 2049 2052 2055 2058 2061 2064 2067 2070 2073 2076 2079 2082 2085 2088 2091 2094 2097 2100 2103 2106 2109 2112 2115 2118 2121 2124 2127 2130 2133 2136 2139 2142 2145 2148 2151 2154 2157 2160 2163 2166 2169 2172 2175 2178 2181 2184 2187 2190 2193 2196 2199 2202 2205 2208 2211 2214 2217 2220 2223 2226 2229 2232 2235 2238 2241 2244 2247 2250 2253 2256 2259 2262 2265 2268 2271 2274 2277 2280 2283 2286 2289 2292 2295 2298 2301 2304 2307 2310 2313 2316 2319 2322 2325 2328 2331 2334 2337 2340 2343 2346 2349 2352 2355 2358 2361 2364 2367 2370 2373 2376 2379 2382 2385 2388 2391 2394 2397 2400 2403 2406 2409 2412 2415 2418 2421 2424 2427 2430 2433 2436 2439 2442 2445 2448 2451 2454 2457 2460 2463 2466 2469 2472 2475 2478 2481 2484 2487 2490 2493 2496 2499 2502 2505 2508 2511 2514 2517 2520 2523 2526 2529 2532 2535 2538 2541 2544 2547 2550 2553 2556 2559 2562 2565 2568 2571 2574 2577 2580 2583 2586 2589 2592 2595 2598 2601 2604 2607 2610 2613 2616 2619 2622 2625 2628 2631 2634 2637 2640 2643 2646 2649 2652 2655 2658 2661 2664 2667 2670 2673 2676 2679 2682 2685 2688 2691 2694 2697 2700 2703 2706 2709 2712 2715 2718 2721 2724 2727 2730 2733 2736 2739 2742 2745 2748 2751 2754 2757 2760 2763 2766 2769 2772 2775 2778 2781 2784 2787 2790 2793 2796 2799 2802 2805 2808 2811 2814 2817 2820 2823 2826 2829 2832 2835 2838 2841 2844 2847 2850 2853 2856 2859 2862 2865 2868 2871 2874 2877 2880 2883 2886 2889 2892 2895 2898 2901 2904 2907 2910 2913 2916 2919 2922 2925 2928 2931 2934 2937 2940 2943 2946 2949 2952 2955 2958 2961 2964 2967 2970 2973 2976 2979 2982 2985 2988 2991 2994 2997 3000 3003 3006 3009 3012 3015 3018 3021 3024 3027 3030 3033 3036 3039 3042 3045 3048 3051 3054 3057 3060 3063 3066 3069 3072 3075 3078 3081 3084 3087 3090 3093 3096 3099 3102 3105 3108 3111 3114 3117 3120 3123 3126 3129 3132 3135 3138 3141 3144 3147 3150 3153 3156 3159 3162 3165 3168 3171 3174 3177 3180 3183 3186 3189 3192 3195 3198 3201 3204 3207 3210 3213 3216 3219 3222 3225 3228 3231 3234 3237 3240 3243 3246 3249 3252 3255 3258 3261 3264 3267 3270 3273 3276 3279 3282 3285 3288 3291 3294 3297 3300 3303 3306 3309 3312 3315 3318 3321 3324 3327 3330 3333 3336 3339 3342 3345 3348 3351 3354 3357 3360 3363 3366 3369 3372 3375 3378 3381 3384 3387 3390 3393 3396 3399 3402 3405 3408 3411 3414 3417 3420 3423 3426 3429 3432 3435 3438 3441 3444 3447 3450 3453 3456 3459 3462 3465 3468 3471 3474 3477 3480 3483 3486 3489 3492 3495 3498 3501 3504 3507 3510 3513 3516 3519 3522 3525 3528 3531 3534 3537 3540 3543 3546 3549 3552 3555 3558 3561 3564 3567 3570 3573 3576 3579 3582 3585 3588 3591 3594 3597 3600 3603 3606 3609 3612 3615 3618 3621 3624 3627 3630 3633 3636 3639 3642 3645 3648 3651 3654 3657 3660 3663 3666 3669 3672 3675 3678 3681 3684 3687 3690 3693 3696 3699 3702 3705 3708 3711 3714 3717 3720 3723 3726 3729 3732 3735 3738 3741 3744 3747 3750 3753 3756 3759 3762 3765 3768 3771 3774 3777 3780 3783 3786 3789 3792 3795 3798 3801 3804 3807 3810 3813 3816 3819 3822 3825 3828 3831 3834 3837 3840 3843 3846 3849 3852 3855 3858 3861 3864 3867 3870 3873 3876 3879 3882 3885 3888 3891 3894 3897 3900 3903 3906 3909 3912 3915 3918 3921 3924 3927 3930 3933 3936 3939 3942 3945 3948 3951 3954 3957 3960 3963 3966 3969 3972 3975 3978 3981 3984 3987 3990 3993 3996 3999 4002 4005 4008 4011 4014 4017 4020 4023 4026 4029 4032 4035 4038 4041 4044 4047 4050 4053 4056 4059 4062 4065 4068 4071 4074 4077 4080 4083 4086 4089 4092 4095 4098 4101 4104 4107 4110 4113 4116 4119 4122 4125 4128 4131 4134 4137 4140 4143 4146 4149 4152 4155 4158 4161 4164 4167 4170 4173 4176 4179 4182 4185 4188 4191 4194 4197 4200 4203 4206 4209 4212 4215 4218 4221 4224 4227 4230 4233 4236 4239 4242 4245 4248 4251 4254 4257 4260 4263 4266 4269 4272 4275 4278 4281 4284 4287 4290 4293 4296 4299 4302 4305 4308 4311 4314 4317 4320 4323 4326 4329 4332 4335 4338 4341 4344 4347 4350 4353 4356 4359 4362 4365 4368 4371 4374 4377 4380 4383 4386 4389 4392 4395 4398 4401 4404 4407 4410 4413 4416 4419 4422 4425 4428 4431 4434 4437 4440 4443 4446 4449 4452 4455 4458 4461 4464 4467 4470 4473 4476 4479 4482 4485 4488 4491 4494 4497 4500 4503 4506 4509 4512 4515 4518 4521 4524 4527 4530 4533 4536 4539 4542 4545 4548 4551 4554 4557 4560 4563 4566 4569 4572 4575 4578 4581 4584 4587 4590 4593 4596 4599 4602 4605 4608 4611 4614 4617 4620 4623 4626 4629 4632 4635 4638 4641 4644 4647 4650 4653 4656 4659 4662 4665 4668 4671 4674 4677 4680 4683 4686 4689 4692 4695 4698 4701 4704 4707 4710 4713 4716 4719 4722 4725 4728 4731 4734 4737 4740 4743 4746 4749 4752 4755 4758 4761 4764 4767 4770 4773 4776 4779 4782 4785 4788 4791 4794 4797 4800 4803 4806 4809 4812 4815 4818 4821 4824 4827 4830 4833 4836 4839 4842 4845 4848 4851 4854 4857 4860 4863 4866 4869 4872 4875 4878 4881 4884 4887 4890 4893 4896 4899 4902 4905 4908 4911 4914 4917 4920 4923 4926 4929 4932 4935 4938 4941 4944 4947 4950 4953 4956 4959 4962 4965 4968 4971 4974 4977 4980 4983 4986 4989 4992 4995 4998 5001 5004 5007 5010 5013 5016 5019 5022 5025 5028 5031 5034 5037 5040 5043 5046 5049 5052 5055 5058 5061 5064 5067 5070 5073 5076 5079 5082 5085 5088 5091 5094 5097 5100 5103 5106 5109 5112 5115 5118 5121 5124 5127 5130 5133 5136 5139 5142 5145 5148 5151 5154 5157 5160 5163 5166 5169 5172 5175 5178 5181 5184 5187 5190 5193 5196 5199 5202 5205 5208 5211 5214 5217 5220 5223 5226 5229 5232 5235 5238 5241 5244 5247 5250 5253 5256 5259 5262 5265 5268 5271 5274 5277 5280 5283 5286 5289 5292 5295 5298 5301 5304 5307 5310 5313 5316 5319 5322 5325 5328 5331 5334 5337 5340 5343 5346 5349 5352 5355 5358 5361 5364 5367 5370 5373 5376 5379 5382 5385 5388 5391 5394 5397 5400 5403 5406 5409 5412 5415 5418 5421 5424 5427 5430 5433 5436 5439 5442 5445 5448 5451 5454 5457 5460 5463 5466 5469 5472 5475 5478 5481 5484 5487 5490 5493 5496 5499 5502 5505 5508 5511 5514 5517 5520 5523 5526 5529 5532 5535 5538 5541 5544 5547 5550 5553 5556 5559 5562 5565 5568 5571 5574 5577 5580 5583 5586 5589 5592 5595 5598 5601 5604 5607 5610 5613 5616 5619 5622 5625 5628 5631 5634 5637 5640 5643 5646 5649 5652 5655 5658 5661 5664 5667 5670 5673 5676 5679 5682 5685 5688 5691 5694 5697 5700 5703 5706 5709 5712 5715 5718 5721 5724 5727 5730 5733 5736 5739 5742 5745 5748 5751 5754 5757 5760 5763 5766 5769 5772 5775 5778 5781 5784 5787 5790 5793 5796 5799 5802 5805 5808 5811 5814 5817 5820 5823 5826 5829 5832 5835 5838 5841 5844 5847 5850 5853 5856 5859 5862 5865 5868 5871 5874 5877 5880 5883 5886 5889 5892 5895 5898 5901 5904 5907 5910 5913 5916 5919 5922 5925 5928 5931 5934 5937 5940 5943 5946 5949 5952 5955 5958 5961 5964 5967 5970 5973 5976 5979 5982 5985 5988 5991 5994 5997 6000 6003 6006 6009 6012 6015 6018 6021 6024 6027 6030 6033 6036 6039 6042 6045 6048 6051 6054 6057 6060 6063 6066 6069 6072 6075 6078 6081 6084 6087 6090 6093 6096 6099 6102 6105 6108 6111 6114 6117 6120 6123 6126 6129 6132 6135 6138 6141 6144 </DataArray>
<DataArray  type="UInt8"  Name="types"  format="ascii">5 5 5 5 5 5 5 5 5 5 5 5 5 5 5 5 5 5 5 5 5 5 5 5 5 5 5 5 5 5 5 5 5 5 5 5 5 5 5 5 5 5 5 5 5 5 5 5 5 5 5 5 5 5 5 5 5 5 5 5 5 5 5 5 5 5 5 5 5 5 5 5 5 5 5 5 5 5 5 5 5 5 5 5 5 5 5 5 5 5 5 5 5 5 5 5 5 5 5 5 5 5 5 5 5 5 5 5 5 5 5 5 5 5 5 5 5 5 5 5 5 5 5 5 5 5 5 5 5 5 5 5 5 5 5 5 5 5 5 5 5 5 5 5 5 5 5 5 5 5 5 5 5 5 5 5 5 5 5 5 5 5 5 5 5 5 5 5 5 5 5 5 5 5 5 5 5 5 5 5 5 5 5 5 5 5 5 5 5 5 5 5 5 5 5 5 5 5 5 5 5 5 5 5 5 5 5 5 5 5 5 5 5 5 5 5 5 5 5 5 5 5 5 5 5 5 5 5 5 5 5 5 5 5 5 5 5 5 5 5 5 5 5 5 5 5 5 5 5 5 5 5 5 5 5 5 5 5 5 5 5 5 5 5 5 5 5 5 5 5 5 5 5 5 5 5 5 5 5 5 5 5 5 5 5 5 5 5 5 5 5 5 5 5 5 5 5 5 5 5 5 5 5 5 5 5 5 5 5 5 5 5 5 5 5 5 5 5 5 5 5 5 5 5 5 5 5 5 5 5 5 5 5 5 5 5 5 5 5 5 5 5 5 5 5 5 5 5 5 5 5 5 5 5 5 5 5 5 5 5 5 5 5 5 5 5 5 5 5 5 5 5 5 5 5 5 5 5 5 5 5 5 5 5 5 5 5 5 5 5 5 5 5 5 5 5 5 5 5 5 5 5 5 5 5 5 5 5 5 5 5 5 5 5 5 5 5 5 5 5 5 5 5 5 5 5 5 5 5 5 5 5 5 5 5 5 5 5 5 5 5 5 5 5 5 5 5 5 5 5 5 5 5 5 5 5 5 5 5 5 5 5 5 5 5 5 5 5 5 5 5 5 5 5 5 5 5 5 5 5 5 5 5 5 5 5 5 5 5 5 5 5 5 5 5 5 5 5 5 5 5 5 5 5 5 5 5 5 5 5 5 5 5 5 5 5 5 5 5 5 5 5 5 5 5 5 5 5 5 5 5 5 5 5 5 5 5 5 5 5 5 5 5 5 5 5 5 5 5 5 5 5 5 5 5 5 5 5 5 5 5 5 5 5 5 5 5 5 5 5 5 5 5 5 5 5 5 5 5 5 5 5 5 5 5 5 5 5 5 5 5 5 5 5 5 5 5 5 5 5 5 5 5 5 5 5 5 5 5 5 5 5 5 5 5 5 5 5 5 5 5 5 5 5 5 5 5 5 5 5 5 5 5 5 5 5 5 5 5 5 5 5 5 5 5 5 5 5 5 5 5 5 5 5 5 5 5 5 5 5 5 5 5 5 5 5 5 5 5 5 5 5 5 5 5 5 5 5 5 5 5 5 5 5 5 5 5 5 5 5 5 5 5 5 5 5 5 5 5 5 5 5 5 5 5 5 5 5 5 5 5 5 5 5 5 5 5 5 5 5 5 5 5 5 5 5 5 5 5 5 5 5 5 5 5 5 5 5 5 5 5 5 5 5 5 5 5 5 5 5 5 5 5 5 5 5 5 5 5 5 5 5 5 5 5 5 5 5 5 5 5 5 5 5 5 5 5 5 5 5 5 5 5 5 5 5 5 5 5 5 5 5 5 5 5 5 5 5 5 5 5 5 5 5 5 5 5 5 5 5 5 5 5 5 5 5 5 5 5 5 5 5 5 5 5 5 5 5 5 5 5 5 5 5 5 5 5 5 5 5 5 5 5 5 5 5 5 5 5 5 5 5 5 5 5 5 5 5 5 5 5 5 5 5 5 5 5 5 5 5 5 5 5 5 5 5 5 5 5 5 5 5 5 5 5 5 5 5 5 5 5 5 5 5 5 5 5 5 5 5 5 5 5 5 5 5 5 5 5 5 5 5 5 5 5 5 5 5 5 5 5 5 5 5 5 5 5 5 5 5 5 5 5 5 5 5 5 5 5 5 5 5 5 5 5 5 5 5 5 5 5 5 5 5 5 5 5 5 5 5 5 5 5 5 5 5 5 5 5 5 5 5 5 5 5 5 5 5 5 5 5 5 5 5 5 5 5 5 5 5 5 5 5 5 5 5 5 5 5 5 5 5 5 5 5 5 5 5 5 5 5 5 5 5 5 5 5 5 5 5 5 5 5 5 5 5 5 5 5 5 5 5 5 5 5 5 5 5 5 5 5 5 5 5 5 5 5 5 5 5 5 5 5 5 5 5 5 5 5 5 5 5 5 5 5 5 5 5 5 5 5 5 5 5 5 5 5 5 5 5 5 5 5 5 5 5 5 5 5 5 5 5 5 5 5 5 5 5 5 5 5 5 5 5 5 5 5 5 5 5 5 5 5 5 5 5 5 5 5 5 5 5 5 5 5 5 5 5 5 5 5 5 5 5 5 5 5 5 5 5 5 5 5 5 5 5 5 5 5 5 5 5 5 5 5 5 5 5 5 5 5 5 5 5 5 5 5 5 5 5 5 5 5 5 5 5 5 5 5 5 5 5 5 5 5 5 5 5 5 5 5 5 5 5 5 5 5 5 5 5 5 5 5 5 5 5 5 5 5 5 5 5 5 5 5 5 5 5 5 5 5 5 5 5 5 5 5 5 5 5 5 5 5 5 5 5 5 5 5 5 5 5 5 5 5 5 5 5 5 5 5 5 5 5 5 5 5 5 5 5 5 5 5 5 5 5 5 5 5 5 5 5 5 5 5 5 5 5 5 5 5 5 5 5 5 5 5 5 5 5 5 5 5 5 5 5 5 5 5 5 5 5 5 5 5 5 5 5 5 5 5 5 5 5 5 5 5 5 5 5 5 5 5 5 5 5 5 5 5 5 5 5 5 5 5 5 5 5 5 5 5 5 5 5 5 5 5 5 5 5 5 5 5 5 5 5 5 5 5 5 5 5 5 5 5 5 5 5 5 5 5 5 5 5 5 5 5 5 5 5 5 5 5 5 5 5 5 5 5 5 5 5 5 5 5 5 5 5 5 5 5 5 5 5 5 5 5 5 5 5 5 5 5 5 5 5 5 5 5 5 5 5 5 5 5 5 5 5 5 5 5 5 5 5 5 5 5 5 5 5 5 5 5 5 5 5 5 5 5 5 5 5 5 5 5 5 5 5 5 5 5 5 5 5 5 5 5 5 5 5 5 5 5 5 5 5 5 5 5 5 5 5 5 5 5 5 5 5 5 5 5 5 5 5 5 5 5 5 5 5 5 5 5 5 5 5 5 5 5 5 5 5 5 5 5 5 5 5 5 5 5 5 5 5 5 5 5 5 5 5 5 5 5 5 5 5 5 5 5 5 5 5 5 5 5 5 5 5 5 5 5 5 5 5 5 5 5 5 5 5 5 5 5 5 5 5 5 5 5 5 5 5 5 5 5 5 5 5 5 5 5 5 5 5 5 5 5 5 5 5 5 5 5 5 5 5 5 5 5 5 5 5 5 5 5 5 5 5 5 5 5 5 5 5 5 5 5 5 5 5 5 5 5 5 5 5 5 5 5 5 5 5 5 5 5 5 5 5 5 5 5 5 5 5 5 5 5 5 5 5 5 5 5 5 5 5 5 5 5 5 5 5 5 5 5 5 5 5 5 5 5 5 5 5 5 5 5 5 5 5 5 5 5 5 5 5 5 5 5 5 5 5 5 5 5 5 5 5 5 5 5 5 5 5 5 5 5 5 5 5 5 5 5 5 5 5 5 5 5 5 5 5 5 5 5 5 5 5 5 5 5 5 5 5 5 5 5 5 5 5 5 5 5 5 5 5 5 5 5 5 5 5 5 5 5 5 5 5 5 5 5 5 5 5 5 5 5 5 5 5 5 5 5 5 5 5 5 5 5 5 5 5 5 5 5 5 5 5 5 5 5 5 5 5 5 5 5 5 5 5 5 5 5 5 5 5 5 5 5 5 5 5 5 5 5 5 5 5 5 5 5 5 5 5 5 5 5 5 5 5 5 5 5 5 5 5 5 5 5 5 5 5 5 5 5 5 5 5 5 5 5 5 5 5 5 5 5 5 5 5 5 5 5 5 5 5 5 5 5 5 5 5 5 5 5 5 5 5 5 5 5 5 5 5 5 5 5 5 5 5 5 5 5 5 5 5 5 5 5 5 5 5 5 5 5 5 5 5 5 5 5 5 5 5 5 5 5 5 5 5 5 5 5 5 5 5 5 5 5 5 5 5 5 5 5 5 5 5 5 5 5 5 5 5 5 5 5 5 5 5 5 5 5 5 5 5 5 5 5 5 5 5 5 5 5 5 5 5 5 5 5 5 5 5 5 5 5 5 5 5 5 5 5 5 5 5 5 5 5 5 5 5 5 5 5 5 5 5 5 5 5 5 5 5 5 5 5 5 5 5 5 5 5 5 5 5 5 5 5 5 5 5 5 5 5 5 5 5 5 5 5 5 5 5 5 5 5 5 5 5 5 5 5 5 5 5 5 5 </DataArray>
</Cells>
<PointData  Scalars="u"> 
<DataArray  type="Float64"  Name="u"  format="ascii">3.8736033050406803e+01  3.8567805667333062e+01  3.8279603742405961e+01  3.7877346229850346e+01  3.7387395526356620e+01  3.6837689769372538e+01  3.6253067265986466e+01  3.5654276336905333e+01  3.5058028300407749e+01  3.4477348670075529e+01  3.3921998180472848e+01  3.3398894035385915e+01  3.2912514039832061e+01  3.2465282198853117e+01  3.2057936801097568e+01  3.1689879766274963e+01  3.1359503103564528e+01  3.1064486589790910e+01  3.0802060869906807e+01  3.0569231896483583e+01  3.0362965281304984e+01  3.0180331960840316e+01  3.0018618981245226e+01  2.9875410865894665e+01  2.9748647850894304e+01  2.9636667244658714e+01  2.9538232968196368e+01  2.9452554182020172e+01  2.9379278953333404e+01  2.9318388897390179e+01  2.9269659671233782e+01  2.9230147257715018e+01  2.9182337251454801e+01  3.8272240085525638e+01  3.8158172182559696e+01  3.7873877891155658e+01  3.7464979037358830e+01  3.6967287464046279e+01  3.6411093946357987e+01  3.5821746013745667e+01  3.5219978965240280e+01  3.4622341348625234e+01  3.4041660381674831e+01  3.3487497809660340e+01  3.2966579850730376e+01  3.2483202062835396e+01  3.2039614458682586e+01  3.1636390223740822e+01  3.1272777162976578e+01  3.0947027126590953e+01  3.0656696607624639e+01  3.0398911903802748e+01  3.0170594289251092e+01  2.9968643683080312e+01  2.9790082429061737e+01  2.9632163365340887e+01  2.9492448064690016e+01  2.9368861956681727e+01  2.9259733172952927e+01  2.9163821647868794e+01  2.9080344781310885e+01  2.9009008151010885e+01  2.8950067726330165e+01  2.8904560404018820e+01  2.8875471696850788e+01  2.8874141314648345e+01  3.7154205118466699e+01  3.7049581570942109e+01  3.6762492308143287e+01  3.6347715913860760e+01  3.5846381929937216e+01  3.5290701393628765e+01  3.4706334718549428e+01  3.4113703480855463e+01  3.3528843711095952e+01  3.2964035772323058e+01  3.2428312063384659e+01  3.1927895436837122e+01  3.1466600031855258e+01  3.1046213060925751e+01  3.0666865504366356e+01  3.0327390834782012e+01  3.0025664610331095e+01  2.9758914959927875e+01  2.9523994691664001e+01  2.9317609013485534e+01  2.9136497183508421e+01  2.8977570481286858e+01  2.8838011917392134e+01  2.8715344851747940e+01  2.8607478360748775e+01  2.8512737219531147e+01  2.8429884425443518e+01  2.8358145565185580e+01  2.8297250264142960e+01  2.8247525284681437e+01  2.8210126395462623e+01  2.8187586838264956e+01  2.8184614512739227e+01  3.5501809055763296e+01  3.5401441973215015e+01  3.5120736505046104e+01  3.4716789910414981e+01  3.4231940486621468e+01  3.3698506925500041e+01  3.3141647084413393e+01  3.2581059478213476e+01  3.2032035083991580e+01  3.1506155553776811e+01  3.1011804405782573e+01  3.0554586230457286e+01  3.0137708511858449e+01  2.9762355292061315e+01  2.9428063525822083e+01  2.9133098736625840e+01  2.8874816970404773e+01  2.8649996408349502e+01  2.8455124187529648e+01  2.8286629915943742e+01  2.8141064306014243e+01  2.8015227162077725e+01  2.7906252667584408e+01  2.7811661530909980e+01  2.7729389614943237e+01  2.7657801920405880e+01  2.7595699936304701e+01  2.7542330105277557e+01  2.7497402009408418e+01  2.7461125738281588e+01  2.7434267720127892e+01  2.7418148254276879e+01  2.7414165272072854e+01  3.3479418169373297e+01  3.3386794493329795e+01  3.3126671062437339e+01  3.2752902094630159e+01  3.2305629283607544e+01  3.1815564032973104e+01  3.1306641588401785e+01  3.0797628270305019e+01  3.0303095806048390e+01  2.9834038434327965e+01  2.9398307145682086e+01  2.9000967525610747e+01  2.8644643961154099e+01  2.8329883408736947e+01  2.8055548550912121e+01  2.7819230017221930e+01  2.7617653009386977e+01  2.7447049349673563e+01  2.7303471687964180e+01  2.7183037954194404e+01  2.7082105799359606e+01  2.6997385280005620e+01  2.6926002420050594e+01  2.6865527197724557e+01  2.6813978235004093e+01  2.6769814203337113e+01  2.6731919488701493e+01  2.6699589213957744e+01  2.6672515616976288e+01  2.6650771199153212e+01  2.6634765963414253e+01  2.6625110075250689e+01  2.6622235022149727e+01  3.1243361333188794e+01  3.1162012015922475e+01  3.0932909179327851e+01  3.0602325283464438e+01  3.0205887320927211e+01  2.9771657741986271e+01  2.9322066647961247e+01  2.8875062892092501e+01  2.8444777816659016e+01  2.8041921641854902e+01  2.7674062699516448e+01  2.7345884391213904e+01  2.7059477603720755e+01  2.6814700332832548e+01  2.6609610737095402e+01  2.6440951057277392e+01  2.6304636490738460e+01  2.6196198000253897e+01  2.6111141623577360e+01  2.6045208892320048e+01  2.5994542753007707e+01  2.5955775549109077e+01  2.5926059975116861e+01  2.5903062825274027e+01  2.5884937542896338e+01  2.5870287003266814e+01  2.5858123633024611e+01  2.5847830014477779e+01  2.5839118888278666e+01  2.5831985464515771e+01  2.5826635315055086e+01  2.5823359569562598e+01  2.5822337254437365e+01  2.8916106007462830e+01  2.8847206763688227e+01  2.8652380176828437e+01  2.8368452570868243e+01  2.8025674877227075e+01  2.7649270847926037e+01  2.7260383225526763e+01  2.6876555853046234e+01  2.6511929999116045e+01  2.6177319262164751e+01  2.5880277596604529e+01  2.5625227943933051e+01  2.5413694845117824e+01  2.5244672316126760e+01  2.5115133973722074e+01  2.5020646039172821e+01  2.4955998500430024e+01  2.4915763207635692e+01  2.4894719258595977e+01  2.4888129387534100e+01  2.4891884272318617e+01  2.4902547635747592e+01  2.4917336926208179e+01  2.4934068525840683e+01  2.4951088073297406e+01  2.4967198585940054e+01  2.4981592728158311e+01  2.4993790751971492e+01  2.5003581743521874e+01  2.5010962243795554e+01  2.5016063406184138e+01  2.5019059153048843e+01  2.5020063766926270e+01  2.6579506912661238e+01  2.6521821547506025e+01  2.6357834448271920e+01  2.6115475555672639e+01  2.5820112536347494e+01  2.5494715410622316e+01  2.5159806938146062e+01  2.4833193230164518e+01  2.4529599879598013e+01  2.4260364377956705e+01  2.4033265526796075e+01  2.3852510384370678e+01  2.3718898295156031e+01  2.3630206909696511e+01  2.3581831426160800e+01  2.3567620916856448e+01  2.3580750159585563e+01  2.3614458047033974e+01  2.3662559388183876e+01  2.3719723405635577e+01  2.3781565855987882e+01  2.3844618202407460e+01  2.3906230385579271e+01  2.3964447895493095e+01  2.4017887932388142e+01  2.4065627088822584e+01  2.4107104670340718e+01  2.4142040664315463e+01  2.4170364408832825e+01  2.4192148547823930e+01  2.4207543134016195e+01  2.4216708418581149e+01  2.4219754525214334e+01  2.4280637867872471e+01  2.4231283169470814e+01  2.4090158641848532e+01  2.3878354064467821e+01  2.3617768567917373e+01  2.3330299798370998e+01  2.3036931516308439e+01  2.2756678418190411e+01  2.2505576313806177e+01  2.2295957828091797e+01  2.2136055912411891e+01  2.2029853369913571e+01  2.1977150455903846e+01  2.1973950044509376e+01  2.2013290901639220e+01  2.2086475218720778e+01  2.2184354570639389e+01  2.2298345083348018e+01  2.2421034692407311e+01  2.2546418510764813e+01  2.2669876550586444e+01  2.2788011299070092e+01  2.2898432511124277e+01  2.2999541814366960e+01  2.3090342607319450e+01  2.3170283423357024e+01  2.3239133467524820e+01  2.3296884687367189e+01  2.3343673369069233e+01  2.3379714631505887e+01  2.3405244983681150e+01  2.3420471584583069e+01  2.3425531937131090e+01  2.2043180018978124e+01  2.1998411773270941e+01  2.1869710261418611e+01  2.1673872933368756e+01  2.1431191299835902e+01  2.1164121610888078e+01  2.0895655902075685e+01  2.0647364528027353e+01  2.0437549116312752e+01  2.0280092671679437e+01  2.0183941816962143e+01  2.0152862457723554e+01  2.0185322157239476e+01  2.0274751237556615e+01  2.0410628953588329e+01  2.0580441518062031e+01  2.0771713767830981e+01  2.0973439835185200e+01  2.1176750963910589e+01  2.1374994272606124e+01  2.1563479108271004e+01  2.1739096027926806e+01  2.1899931269626784e+01  2.2044933583768632e+01  2.2173649816146749e+01  2.2286025329739822e+01  2.2382257453985329e+01  2.2462688706069770e+01  2.2527727969282648e+01  2.2577790379597737e+01  2.2613249711822171e+01  2.2634400387177557e+01  2.2641429429128220e+01  1.9878946563481549e+01  1.9834634112924928e+01  1.9706660710895953e+01  1.9509842409911162e+01  1.9264800617936920e+01  1.8996576512670661e+01  1.8732387691157257e+01  1.8498377222891921e+01  1.8316373776920685e+01  1.8202401452139885e+01  1.8166412722719020e+01  1.8212105621647549e+01  1.8336374541918492e+01  1.8529004633949260e+01  1.8773966532083641e+01  1.9052904672298077e+01  1.9348590347485008e+01  1.9646930428134745e+01  1.9937522383632711e+01  2.0213320094060009e+01  2.0469943992458898e+01  2.0704958719074561e+01  2.0917260484209585e+01  2.1106609790074661e+01  2.1273296648423166e+01  2.1417909895664902e+01  2.1541181826085143e+01  2.1643884389134278e+01  2.1726759205834288e+01  2.1790469061187718e+01  2.1835563000243276e+01  2.1862450758623758e+01  2.1871384941127836e+01  1.7796843682517707e+01  1.7748630294349887e+01  1.7608770519328459e+01  1.7391726404399023e+01  1.7120144633924195e+01  1.6824087888284236e+01  1.6538370881255013e+01  1.6297024608333381e+01  1.6126942044836078e+01  1.6046584900002447e+01  1.6067112759851732e+01  1.6192716538718852e+01  1.6419030306356547e+01  1.6730903860236189e+01  1.7103313750119703e+01  1.7508611372910803e+01  1.7922806884158902e+01  1.8328165580523997e+01  1.8713085791748497e+01  1.9070818298476421e+01  1.9398017142927557e+01  1.9693533797617832e+01  1.9957541793890076e+01  2.0190948212756862e+01  2.0395016945022682e+01  2.0571135685148995e+01  2.0720675506269288e+01  2.0844907780840657e+01  2.0944955379738538e+01  2.1021763643800469e+01  2.1076082459610536e+01  2.1108454699747114e+01  2.1119208812195755e+01  1.5808813929168267e+01  1.5752143692035421e+01  1.5586792946526090e+01  1.5327387927120776e+01  1.4999508960497039e+01  1.4640987378411200e+01  1.4299820325116512e+01  1.4024310574693256e+01  1.3847726286678231e+01  1.3789848165981274e+01  1.3862715749898131e+01  1.4072604768767764e+01  1.4416118647788720e+01  1.4872262154820190e+01  1.5399770467886599e+01  1.5955418517636868e+01  1.6505859230425607e+01  1.7029838611607197e+01  1.7515836538306377e+01  1.7958849944091622e+01  1.8357772349563184e+01  1.8713617453806663e+01  1.9028424632114124e+01  1.9304624292466592e+01  1.9544687215853479e+01  1.9750940382789455e+01  1.9925476726425956e+01  2.0070115844232518e+01  2.0186390886059218e+01  2.0275547673196520e+01  2.0338548493759550e+01  2.0376076768016720e+01  2.0388540907658999e+01  1.3933348198013544e+01  1.3863635640927502e+01  1.3658469648559123e+01  1.3331295303369544e+01  1.2909385744700055e+01  1.2440458016164206e+01  1.1995569996462049e+01  1.1652646794521729e+01  1.1449790466348047e+01  1.1402357771816625e+01  1.1521292747107193e+01  1.1818865525709473e+01  1.2300575862317455e+01  1.2942254783021486e+01  1.3668086954844082e+01  1.4407432715365676e+01  1.5115372745023349e+01  1.5769493003236363e+01  1.6361571751704737e+01  1.6890972558877017e+01  1.7360604839480484e+01  1.7774739025584612e+01  1.8137914982324755e+01  1.8454437105697458e+01  1.8728167241146419e+01  1.8962461902580593e+01  1.9160175171748666e+01  1.9323687983220399e+01  1.9454944646847284e+01  1.9555487669038385e+01  1.9626487074140073e+01  1.9668762970858165e+01  1.9682801282368249e+01  1.2197074430579196e+01  1.2110370084963641e+01  1.1852040031885286e+01  1.1429875512502703e+01  1.0866246741149986e+01  1.0215870447507527e+01  9.5893447673158931e+00  9.1409106410881069e+00  8.8964280108332652e+00  8.8484980686058456e+00  9.0012310452281099e+00  9.3809882348402933e+00  1.0025064224768848e+01  1.0928094013401626e+01  1.1922889772746659e+01  1.2890852599919207e+01  1.3778706006916890e+01  1.4571188891361139e+01  1.5269984899126483e+01  1.5882863696237035e+01  1.6418935421702386e+01  1.6886818825520070e+01  1.7294059165239240e+01  1.7647041906486962e+01  1.7951082740253106e+01  1.8210564814527189e+01  1.8429074074706708e+01  1.8609516270019512e+01  1.8754212049052619e+01  1.8864971281959441e+01  1.8943149162898560e+01  1.8989686758904508e+01  1.9005138280094979e+01  1.0634145632314752e+01  1.0528672466241440e+01  1.0209414922593401e+01  9.6699044269777712e+00  8.9098471869838463e+00  7.9674280706817422e+00  7.0050258032324759e+00  6.4252218570159929e+00  6.1465122766135982e+00  6.0939751388698680e+00  6.2541449700012137e+00  6.6787920600295205e+00  7.4905987448816704e+00  8.8221672502892687e+00  1.0204525510922414e+01  1.1454381898428720e+01  1.2537409788112054e+01  1.3466571654463619e+01  1.4264315256312594e+01  1.4951561904776005e+01  1.5545454325327677e+01  1.6059541689426009e+01  1.6504460946558041e+01  1.6888588614722842e+01  1.7218556998833375e+01  1.7499640540558655e+01  1.7736040042526376e+01  1.7931090973095632e+01  1.8087415997382831e+01  1.8207036246847437e+01  1.8291451536589829e+01  1.8341696621766122e+01  1.8358378320202483e+01  9.2821473151393938e+00  9.1607448077870508e+00  8.7870356333447877e+00  8.1304765555739404e+00  7.1358077605746963e+00  5.7389679784046299e+00  4.0381080881620868e+00  3.4084384938843133e+00  3.1704239938606333e+00  3.1267451876630252e+00  3.2425816097345876e+00  3.5894362773935424e+00  4.4363714379697656e+00  6.6654507287306846e+00  8.6186631206208002e+00  1.0184739693961770e+01  1.1449979592240403e+01  1.2493372681869873e+01  1.3369142566785058e+01  1.4113614341177181e+01  1.4751778285381567e+01  1.5301432660285897e+01  1.5775654316837894e+01  1.6184294607009875e+01  1.6534916099797361e+01  1.6833400306346910e+01  1.7084354581744137e+01  1.7291391582453624e+01  1.7457324720535528e+01  1.7584306171457602e+01  1.7673924114847168e+01  1.7727269871367646e+01  1.7744981757182686e+01  8.1729504240822504e+00  8.0451205382586171e+00  7.6475047006555545e+00  6.9291576711249832e+00  5.7639389763469531e+00  3.8145278311273829e+00  0.0000000000000000e+00  0.0000000000000000e+00  0.0000000000000000e+00  0.0000000000000000e+00  0.0000000000000000e+00  0.0000000000000000e+00  0.0000000000000000e+00  4.7846011056284059e+00  7.4199365486714850e+00  9.2159341644636363e+00  1.0584396204973455e+01  1.1687796913969276e+01  1.2605267987770532e+01  1.3381974607761304e+01  1.4046611814733234e+01  1.4618756349497035e+01  1.5112429053497250e+01  1.5538019396681168e+01  1.5903412486999162e+01  1.6214690003287437e+01  1.6476586395649594e+01  1.6692796054439178e+01  1.6866185130848049e+01  1.6998939603600281e+01  1.7092668879973598e+01  1.7148476991674610e+01  1.7167008965792967e+01  7.3194125652960320e+00  7.1992815415130345e+00  6.8287046543284680e+00  6.1747103143314845e+00  5.1762625805696327e+00  3.7552043418127288e+00  1.9713003133566720e+00  1.0815830891348386e+00  0.0000000000000000e+00  8.7307832292687970e-01  1.3209886075657189e+00  1.8206175422378739e+00  2.7581330783338567e+00  5.0530171450629098e+00  7.0605478039511187e+00  8.6746642102378733e+00  9.9838741492160015e+00  1.1068150781261195e+01  1.1982157862565563e+01  1.2762404287363850e+01  1.3433938016292828e+01  1.4014551869471674e+01  1.4517286150972870e+01  1.4951941439218366e+01  1.5326024448230697e+01  1.5645360824154068e+01  1.5914504943127628e+01  1.6137021108805442e+01  1.6315680144817222e+01  1.6452598232121872e+01  1.6549334809772326e+01  1.6606960249564239e+01  1.6626100122639961e+01  6.7061366154440645e+00  6.6038882800797349e+00  6.2933220058396477e+00  5.7647163276957123e+00  5.0111966796444669e+00  4.0587266378370019e+00  3.0484138206037898e+00  2.3550320423756994e+00  1.9224088394075927e+00  2.1713246839921534e+00  2.5902585650336358e+00  3.2033484830241190e+00  4.1588976260226529e+00  5.6087865923330851e+00  7.0945733118299712e+00  8.4383007233197720e+00  9.6082854003910825e+00  1.0618774199293764e+01  1.1492808393866600e+01  1.2251546662835672e+01  1.2912184093602553e+01  1.3488226961123949e+01  1.3990222241704187e+01  1.4426435760988742e+01  1.4803383042551193e+01  1.5126223901970516e+01  1.5399051443901406e+01  1.5625103292837737e+01  1.5806916107493523e+01  1.5946438370297670e+01  1.6045111877429591e+01  1.6103929074170065e+01  1.6123471025638398e+01  6.2973573126675468e+00  6.2168129355193162e+00  5.9759787522493291e+00  5.5796363072796211e+00  5.0450811709646990e+00  4.4200917086677372e+00  3.8085962885918163e+00  3.3677224202523748e+00  3.1632786312197454e+00  3.2995530085829388e+00  3.6653724855453351e+00  4.2436201987993440e+00  5.0653223503983185e+00  6.1286582864163073e+00  7.2706581277157101e+00  8.3756799708200713e+00  9.3921925297347784e+00  1.0305852221656162e+01  1.1118754850771397e+01  1.1838789876509681e+01  1.2475024734157760e+01  1.3035949639717384e+01  1.3528940093731189e+01  1.3960196320481240e+01  1.4334848059014824e+01  1.4657100297275397e+01  1.4930373637669748e+01  1.5157424511150570e+01  1.5340442622021467e+01  1.5481127264145698e+01  1.5580745255478300e+01  1.5640173144048033e+01  1.5659925831573517e+01  6.0496667605153354e+00  5.9900273936397141e+00  5.8141437590158498e+00  5.5327689776844089e+00  5.1693999880621435e+00  4.7679627371973821e+00  4.3981572048120654e+00  4.1439827188099940e+00  4.0634302566312845e+00  4.1982362335726480e+00  4.5280581697646873e+00  5.0404374762293163e+00  5.7301132903548559e+00  6.5698660752180569e+00  7.4837209417964727e+00  8.4015685025100186e+00  9.2789525260717944e+00  1.0093687306824716e+01  1.0837568911053147e+01  1.1509833258273900e+01  1.2113175326801427e+01  1.2651606769856635e+01  1.3129392173021952e+01  1.3550561368190193e+01  1.3918712575751471e+01  1.4236955590446501e+01  1.4507918298351623e+01  1.4733778492073327e+01  1.4916302605296080e+01  1.5056882808785360e+01  1.5156568736289881e+01  1.5216092414970252e+01  1.5235886012559602e+01  5.9212549415956577e+00  5.8794861190185665e+00  5.7577999123076893e+00  5.5678958563121732e+00  5.3317870663768110e+00  5.0842020472381666e+00  4.8720870746455587e+00  4.7466209935429466e+00  4.7482234429222610e+00  4.9019034993114996e+00  5.2081864837113816e+00  5.6599582459983564e+00  6.2448272595737251e+00  6.9369717823045871e+00  7.6927910617421089e+00  8.4679205713517369e+00  9.2283617652176666e+00  9.9523755685177591e+00  1.0628000228342572e+01  1.1249798918731347e+01  1.1816236544917411e+01  1.2327909939885780e+01  1.2786460460309790e+01  1.3193944403506112e+01  1.3552485285354344e+01  1.3864091190407530e+01  1.4130565473216919e+01  1.4353468553495031e+01  1.4534106498304176e+01  1.4673532629409781e+01  1.4772554465925616e+01  1.4831741766983498e+01  1.4851433388724383e+01  5.8763807677635036e+00  5.8488622284677589e+00  5.7696739148616603e+00  5.6492274688717981e+00  5.5056503738919238e+00  5.3649713107319092e+00  5.2593680529886990e+00  5.2221907377938468e+00  5.2809390222032695e+00  5.4529678370396928e+00  5.7428260197709768e+00  6.1463817644790026e+00  6.6522657196370965e+00  7.2404027326844744e+00  7.8825509515156389e+00  8.5489609559371615e+00  9.2141983949293707e+00  9.8594529736860839e+00  1.0472257515068028e+01  1.1045125643391517e+01  1.1574061994251089e+01  1.2057335984459286e+01  1.2494595324825326e+01  1.2886270500170124e+01  1.3233192971752269e+01  1.3536358412612351e+01  1.3796783850613494e+01  1.4015423750385711e+01  1.4193122205015808e+01  1.4330586744623961e+01  1.4428374731019305e+01  1.4486886798313737e+01  1.4506364008370932e+01  5.8865436725150504e+00  5.8699081122198278e+00  5.8228060497968723e+00  5.7536897304205787e+00  5.6766156495868882e+00  5.6106647688087525e+00  5.5782230887834530e+00  5.6018348824404587e+00  5.7003740710572712e+00  5.8862028068730217e+00  6.1637679938538392e+00  6.5304770725095800e+00  6.9774511218111899e+00  7.4898224772805779e+00  8.0480490556988133e+00  8.6311739059518953e+00  9.2200178848765670e+00  9.7989804162291616e+00  1.0356451214851955e+01  1.0884384145515600e+01  1.1377549804236143e+01  1.1832776678874950e+01  1.2248314354362106e+01  1.2623349300596789e+01  1.2957657688872246e+01  1.3251365637676114e+01  1.3504787766238994e+01  1.3718320392418518e+01  1.3892371826749390e+01  1.4027317413050941e+01  1.4123470915213893e+01  1.4181066686881195e+01  1.4200249048131857e+01  5.9299776978562138e+00  5.9214204980988310e+00  5.8979524416851650e+00  5.8661097534266720e+00  5.8364577252262713e+00  5.8228490261327490e+00  5.8410246508958972e+00  5.9065516321272655e+00  6.0325195727123333e+00  6.2277013255412834e+00  6.4955660762617775e+00  6.8343074098942909e+00  7.2372392178175033e+00  7.6933869989278127e+00  8.1886488880471440e+00  8.7076677272950427e+00  9.2357188223958424e+00  9.7599995915020354e+00  1.0270182782595029e+01  1.0758409919582791e+01  1.1218976398302932e+01  1.1647906572442267e+01  1.2042536113151371e+01  1.2401154658982666e+01  1.2722722845463808e+01  1.3006658682980873e+01  1.3252681184247844e+01  1.3460698226299963e+01  1.3630727296512283e+01  1.3762840165616504e+01  1.3857124829904135e+01  1.3913659985865293e+01  1.3932498810394105e+01  5.9905261227120725e+00  5.9878437406340392e+00  5.9814734654182580e+00  5.9763391163746666e+00  5.9802564717587723e+00  6.0032489596000671e+00  6.0564748565401247e+00  6.1508274224603730e+00  6.2954512621235121e+00  6.4965168463180083e+00  6.7564875757576965e+00  7.0739472729883026e+00  7.4438113406367226e+00  7.8578374125660213e+00  8.3054917702669151e+00  8.7751292927852909e+00  9.2551900859097280e+00  9.7351163447881142e+00  1.0205870404443337e+01  1.0660096351917600e+01  1.1092039296950535e+01  1.1497337099439804e+01  1.1872768866818445e+01  1.2216010376718694e+01  1.2525420351019449e+01  1.2799865064535730e+01  1.3038580061471544e+01  1.3241064032021205e+01  1.3406998967383267e+01  1.3536191122998670e+01  1.3628528252920853e+01  1.3683949616281737e+01  1.3702426221713981e+01  6.0564393117239907e+00  6.0579548763069937e+00  6.0637585629791584e+00  6.0775167748949688e+00  6.1049800858340841e+00  6.1534154839686375e+00  6.2307983932041608e+00  6.3448319390505930e+00  6.5019412070033313e+00  6.7064272218495420e+00  6.9599201074626960e+00  7.2611827656645023e+00  7.6062214591750621e+00  7.9886595404326313e+00  8.4003514876692051e+00  8.8321675876694812e+00  9.2747958836696665e+00  9.7194052972973566e+00  1.0158086138472600e+01  1.0584065786693738e+01  1.0991747338141810e+01  1.1376633661547974e+01  1.1735191877963912e+01  1.2064697630054219e+01  1.2363083117359571e+01  1.2628801162671058e+01  1.2860709965081401e+01  1.3057978872930049e+01  1.3220013418000921e+01  1.3346397106074054e+01  1.3436847442498868e+01  1.3491184004626819e+01  1.3509306843898344e+01  6.1193213715699057e+00  6.1237778898907829e+00  6.1380891352964149e+00  6.1649893343919651e+00  6.2087316127139580e+00  6.2746344972362333e+00  6.3684712932572891e+00  6.4957607335345067e+00  6.6610544049896738e+00  6.8673307266141341e+00  7.1155828665790475e+00  7.4046422230319493e+00  7.7312321899663949e+00  8.0902278023202303e+00  8.4750870523077921e+00  8.8783936865537640e+00  9.2924205638021071e+00  9.7096228222590426e+00  1.0123003065455970e+01  1.0526333318242957e+01  1.0914250607374999e+01  1.1282258330646373e+01  1.1626667353435016e+01  1.1944505148174711e+01  1.2233413325693560e+01  1.2491546503707536e+01  1.2717479763252964e+01  1.2910128076616664e+01  1.3068678725616305e+01  1.3192536440797754e+01  1.3281280406373746e+01  1.3334632115828329e+01  1.3352433144625765e+01  6.1732903947740665e+00  6.1797461763898163e+00  6.1998307539237523e+00  6.2356198146625239e+00  6.2903225333935460e+00  6.3679195990050506e+00  6.4726915490542556e+00  6.6086852968404743e+00  6.7791849528067232e+00  6.9862584130382714e+00  7.2304384092074079e+00  7.5105710699178561e+00  7.8238372753383398e+00  8.1659324265741056e+00  8.5313752326879708e+00  8.9138995424356793e+00  9.3068698627259572e+00  9.7036623624807348e+00  1.0097969982849282e+01  1.0484013813447120e+01  1.0856663442468857e+01  1.1211481700227509e+01  1.1544714056955064e+01  1.1853242283516048e+01  1.2134518533532422e+01  1.2386491763212563e+01  1.2607534507606251e+01  1.2796374944667329e+01  1.2952036967049892e+01  1.3073789525126923e+01  1.3161105626370018e+01  1.3213630907686991e+01  1.3231161502948060e+01  6.2143478547467259e+00  6.2220856669706670e+00  6.2458678893462531e+00  6.2873366369408323e+00  6.3490191071926523e+00  6.4340298163361656e+00  6.5456900071142119e+00  6.6871039519664128e+00  6.8607416963584766e+00  7.0680795635248188e+00  7.3093412872944636e+00  7.5833663720937237e+00  7.8876134148950108e+00  8.2182893959498795e+00  8.5705819094343116e+00  8.9389593877750304e+00  9.3174969821853146e+00  9.7001867820886538e+00  1.0081200690013311e+01  1.0455088510227382e+01  1.0816907648825811e+01  1.1162290970839742e+01  1.1487464890641693e+01  1.1789231395401993e+01  1.2064926761707518e+01  1.2312367508004053e+01  1.2529791559292155e+01  1.2715800227396507e+01  1.2869304672789015e+01  1.2989479066290027e+01  1.3075721666292413e+01  1.3127624385601566e+01  1.3144951051792495e+01  6.2399296902715040e+00  6.2483807473998763e+00  6.2742184995497610e+00  6.3188397365619000e+00  6.3843874421000653e+00  6.4734905520327510e+00  6.5889347111000109e+00  6.7332988075524893e+00  6.9085983171359517e+00  7.1159768574080680e+00  7.3554808043519015e+00  7.6259397162675766e+00  7.9249606161980966e+00  8.2490298328960936e+00  8.5937036213243676e+00  8.9538591170448143e+00  9.3239718961516154e+00  9.6983870936752616e+00  1.0071557484887922e+01  1.0438231888623292e+01  1.0793587671767263e+01  1.1133309643663958e+01  1.1453623139369974e+01  1.1751291645742718e+01  1.2023589609891609e+01  1.2268259947803976e+01  1.2483463994161809e+01  1.2667729732837538e+01  1.2819902430419626e+01  1.2939100400951757e+01  1.3024677586908041e+01  1.3076193916634365e+01  1.3093393933018787e+01  6.2486094115395394e+00  6.2572891328075748e+00  6.2837856248910100e+00  6.3294163676569415e+00  6.3962003726129586e+00  6.4866102385947633e+00  6.6032594777005924e+00  6.7485582500075854e+00  6.9243759072247730e+00  7.1317487446196015e+00  7.3706653564374989e+00  7.6399510724265891e+00  7.9372595007337043e+00  8.2591656981120369e+00  8.6013436259222544e+00  8.9588015629282403e+00  9.3261443917010816e+00  9.6978322115728570e+00  1.0068410267239825e+01  1.0432693887610601e+01  1.0785901505955998e+01  1.1123736792678862e+01  1.1442426377431527e+01  1.1738722438307301e+01  1.2009880084312240e+01  1.2253618679158439e+01  1.2468074736713568e+01  1.2651752279372211e+01  1.2803474915100200e+01  1.2922342520189337e+01  1.3007694363753622e+01  1.3059079761009070e+01  1.3076236847013927e+01  </DataArray> 
</PointData> 
</Piece>
</UnstructuredGrid>
</VTKFile>