$MeshFormat
4.1 0 8
$EndMeshFormat
$PhysicalNames
2
1 2 "Boundary"
2 1 "Domain"
$EndPhysicalNames
$Entities
1 1 1 0
1 0.8 0.5 0 0 
1 0.1999999 0.1999999 -1e-07 0.8000001 0.8000001 1e-07 1 2 2 1 -1 
1 0.1999999 0.1999999 -1e-07 0.8000001 0.8000001 1e-07 1 1 1 1 
$EndEntities
$Nodes
3 71 1 71
0 1 0 1
1
0.8 0.5 0
1 1 0 22
2
3
4
5
6
7
8
9
10
11
12
13
14
15
16
17
18
19
20
21
22
23
0.7888751862043397 0.5809390313471073 0
0.7563258213639464 0.6558751850106302 0
0.7047659429655961 0.7192507892834373 0
0.6380195113193454 0.7663655655207127 0
0.5610368039157899 0.7937252263046969 0
0.4795272759905985 0.7993006307571617 0
0.399536116348704 0.7826782766356462 0
0.3269959033655397 0.7450909679031325 0
0.267286612788674 0.6893263832978158 0
0.224836609548364 0.6195203269538723 0
0.2027942161891008 0.5408499947288739 0
0.2027942161891008 0.4591500052711261 0
0.2248366095483642 0.3804796730461275 0
0.267286612788674 0.3106736167021842 0
0.3269959033655399 0.2549090320968674 0
0.3995361163487041 0.2173217233643539 0
0.4795272759905989 0.2006993692428382 0
0.56103680391579 0.2062747736953031 0
0.6380195113193454 0.2336344344792873 0
0.7047659429655962 0.2807492107165628 0
0.7563258213639464 0.3441248149893697 0
0.7888751862043397 0.4190609686528927 0
2 1 0 48
24
25
26
27
28
29
30
31
32
33
34
35
36
37
38
39
40
41
42
43
44
45
46
47
48
49
50
51
52
53
54
55
56
57
58
59
60
61
62
63
64
65
66
67
68
69
70
71
0.7051897854782853 0.5869776614714063 0
0.2819459190997425 0.4389041117679582 0
0.5758339963397126 0.2866235843508785 0
0.393807667208841 0.7121434557449533 0
0.3934070068710894 0.2971534436374538 0
0.7077038910496382 0.4097814686499597 0
0.5768916102318311 0.7123519033671957 0
0.3095088310027068 0.6252086301499005 0
0.6415809749002537 0.3119329413725833 0
0.5903390781483918 0.3645567391341198 0
0.5194078731160929 0.3452490736405771 0
0.536171938783935 0.4205488915751389 0
0.4607116154628645 0.4014552467182926 0
0.4783402415241397 0.4778507257208326 0
0.5565457082549243 0.4992861877623813 0
0.4981800910518371 0.5564719582207716 0
0.4213892542383429 0.533973502242431 0
0.572393195054114 0.5771361753769293 0
0.6373154835987752 0.5240663343296865 0
0.5218494900873207 0.6470782205107963 0
0.612724570731932 0.4424446088223991 0
0.4041259435075609 0.45509372741993 0
0.3361634630526508 0.4981195006893067 0
0.4445592257162789 0.6082907134406151 0
0.382422033687171 0.3726491827503143 0
0.5051866649327412 0.2720341845052699 0
0.3656935271577001 0.5799227315245996 0
0.282104443734236 0.5594448701881174 0
0.4580002786832336 0.6815775434593772 0
0.5892143614718881 0.6459068375768396 0
0.6404094192489919 0.6833417328344034 0
0.6396109607760072 0.6115436176737612 0
0.7206511843204 0.51376214246458 0
0.3375724743418168 0.6830557909695527 0
0.5078125918910967 0.7294525938531866 0
0.6917468995323205 0.3474161176293197 0
0.3054666584643098 0.3752521371255594 0
0.3351156430353568 0.3221274824624758 0
0.4511089383476571 0.3288739934646495 0
0.4490928677362988 0.7422521296638143 0
0.6903698527772579 0.6515221307400347 0
0.3432556571542307 0.4275627006478176 0
0.4448598082648783 0.2617570402522437 0
0.2611604516529661 0.4992936965290765 0
0.6756614912614826 0.46012518465684 0
0.6483578673821677 0.390492152418123 0
0.7417529853641255 0.4574507074156921 0
0.3888560383464914 0.6447738242378542 0
$EndNodes
$Elements
2 140 1 140
1 1 1 23
1 1 2 
2 2 3 
3 3 4 
4 4 5 
5 5 6 
6 6 7 
7 7 8 
8 8 9 
9 9 10 
10 10 11 
11 11 12 
12 12 13 
13 13 14 
14 14 15 
15 15 16 
16 16 17 
17 17 18 
18 18 19 
19 19 20 
20 20 21 
21 21 22 
22 22 23 
23 23 1 
2 1 2 117
24 30 58 43 
25 43 58 52 
26 24 56 2 
27 2 56 1 
28 50 51 46 
29 42 56 24 
30 31 51 50 
31 24 55 42 
32 46 67 25 
33 43 53 30 
34 25 65 46 
35 38 44 42 
36 35 44 38 
37 37 45 36 
38 39 47 40 
39 23 29 22 
40 3 24 2 
41 11 31 10 
42 14 25 13 
43 20 26 19 
44 9 27 8 
45 17 28 16 
46 6 30 5 
47 40 46 45 
48 43 47 39 
49 40 45 37 
50 38 42 41 
51 41 43 39 
52 39 40 37 
53 38 41 39 
54 38 39 37 
55 35 38 37 
56 35 37 36 
57 33 44 35 
58 35 36 34 
59 12 51 11 
60 11 51 31 
61 33 35 34 
62 45 48 36 
63 33 34 26 
64 19 49 18 
65 26 49 19 
66 32 69 33 
67 40 50 46 
68 60 61 48 
69 48 65 60 
70 42 55 41 
71 59 69 32 
72 51 67 46 
73 46 65 45 
74 48 62 36 
75 28 62 48 
76 5 54 4 
77 30 54 5 
78 31 71 57 
79 50 71 31 
80 34 49 26 
81 53 55 54 
82 47 50 40 
83 34 62 49 
84 43 52 47 
85 32 33 26 
86 55 64 54 
87 62 66 49 
88 48 61 28 
89 68 69 29 
90 41 53 43 
91 58 63 52 
92 56 70 1 
93 21 32 20 
94 6 58 30 
95 10 57 9 
96 16 61 15 
97 31 57 10 
98 15 60 14 
99 20 32 26 
100 14 60 25 
101 7 58 6 
102 28 61 16 
103 22 59 21 
104 9 57 27 
105 29 59 22 
106 27 63 8 
107 4 64 3 
108 18 66 17 
109 13 67 12 
110 1 70 23 
111 36 62 34 
112 52 71 47 
113 27 71 52 
114 42 68 56 
115 8 63 7 
116 3 64 24 
117 44 69 68 
118 44 68 42 
119 17 66 28 
120 25 67 13 
121 33 69 44 
122 23 70 29 
123 45 65 48 
124 29 70 68 
125 53 54 30 
126 12 67 51 
127 60 65 25 
128 41 55 53 
129 49 66 18 
130 24 64 55 
131 52 63 27 
132 54 64 4 
133 28 66 62 
134 68 70 56 
135 21 59 32 
136 15 61 60 
137 7 63 58 
138 57 71 27 
139 47 71 50 
140 29 69 59 
$EndElements
